<svg width="60" height="60" viewBox="0 0 60 60" fill="none" xmlns="http://www.w3.org/2000/svg">
<path d="M0 15C0 6.71573 6.71573 0 15 0H45C53.2843 0 60 6.71573 60 15V45C60 53.2843 53.2843 60 45 60H15C6.71573 60 0 53.2843 0 45V15Z" fill="#2FAC66" fill-opacity="0.1"/>
<path d="M26.6129 44.5C26.6129 44.5 25.9354 38.5525 23.4448 36.0646C20.9541 33.5767 15 32.9 15 32.9C15 32.9 20.9541 32.2233 23.4448 29.7354C25.9354 27.2475 26.6129 21.3 26.6129 21.3C26.6129 21.3 27.2904 27.2475 29.781 29.7354C32.2717 32.2233 38.2258 32.9 38.2258 32.9C38.2258 32.9 32.2717 33.5767 29.781 36.0646C27.2904 38.5525 26.6129 44.5 26.6129 44.5ZM38.2258 29.0333C38.2258 29.0333 37.7917 25.5921 36.3442 24.1462C34.8966 22.7003 31.4516 22.2667 31.4516 22.2667C31.4516 22.2667 34.8966 21.833 36.3442 20.3871C37.7917 18.9412 38.2258 15.5 38.2258 15.5C38.2258 15.5 38.6599 18.9412 40.1075 20.3871C41.555 21.833 45 22.2667 45 22.2667C45 22.2667 41.555 22.7003 40.1075 24.1462C38.6599 25.5921 38.2258 29.0333 38.2258 29.0333Z" fill="#2FAC66"/>
</svg>
