<svg width="1641" height="80" viewBox="0 0 1641 80" fill="none" xmlns="http://www.w3.org/2000/svg">
<g filter="url(#filter0_dd_100_1892)">
<g clip-path="url(#clip0_100_1892)">
<rect width="1638" height="60" transform="translate(3 16)" fill="#EFEFEF" fill-opacity="0.7"/>
<rect x="3" y="16" width="322" height="60" fill="#2FAC66"/>
<path d="M30.7045 35.1818C30.7045 36.4508 30.464 37.5303 29.983 38.4205C29.5057 39.3106 28.8542 39.9905 28.0284 40.4602C27.2064 40.9261 26.2822 41.1591 25.2557 41.1591C24.2216 41.1591 23.2936 40.9242 22.4716 40.4545C21.6496 39.9848 21 39.3049 20.5227 38.4148C20.0455 37.5246 19.8068 36.447 19.8068 35.1818C19.8068 33.9129 20.0455 32.8333 20.5227 31.9432C21 31.053 21.6496 30.375 22.4716 29.9091C23.2936 29.4394 24.2216 29.2045 25.2557 29.2045C26.2822 29.2045 27.2064 29.4394 28.0284 29.9091C28.8542 30.375 29.5057 31.053 29.983 31.9432C30.464 32.8333 30.7045 33.9129 30.7045 35.1818ZM28.2102 35.1818C28.2102 34.3598 28.0871 33.6667 27.8409 33.1023C27.5985 32.5379 27.2557 32.1098 26.8125 31.8182C26.3693 31.5265 25.8504 31.3807 25.2557 31.3807C24.661 31.3807 24.142 31.5265 23.6989 31.8182C23.2557 32.1098 22.911 32.5379 22.6648 33.1023C22.4223 33.6667 22.3011 34.3598 22.3011 35.1818C22.3011 36.0038 22.4223 36.697 22.6648 37.2614C22.911 37.8258 23.2557 38.2538 23.6989 38.5455C24.142 38.8371 24.661 38.983 25.2557 38.983C25.8504 38.983 26.3693 38.8371 26.8125 38.5455C27.2557 38.2538 27.5985 37.8258 27.8409 37.2614C28.0871 36.697 28.2102 36.0038 28.2102 35.1818ZM32.4815 44.2727V32.2727H34.8679V33.7386H34.9759C35.0819 33.5038 35.2353 33.2652 35.4361 33.0227C35.6406 32.7765 35.9058 32.572 36.2315 32.4091C36.5611 32.2424 36.9702 32.1591 37.4588 32.1591C38.0952 32.1591 38.6823 32.3258 39.2202 32.6591C39.758 32.9886 40.188 33.4867 40.5099 34.1534C40.8319 34.8163 40.9929 35.6477 40.9929 36.6477C40.9929 37.6212 40.8357 38.4432 40.5213 39.1136C40.2107 39.7803 39.7865 40.286 39.2486 40.6307C38.7145 40.9716 38.116 41.142 37.4531 41.142C36.9834 41.142 36.5838 41.0644 36.2543 40.9091C35.9285 40.7538 35.6615 40.5587 35.4531 40.3239C35.2448 40.0852 35.0857 39.8447 34.9759 39.6023H34.902V44.2727H32.4815ZM34.8509 36.6364C34.8509 37.1553 34.9228 37.608 35.0668 37.9943C35.2107 38.3807 35.419 38.6818 35.6918 38.8977C35.9645 39.1098 36.2959 39.2159 36.6861 39.2159C37.08 39.2159 37.4134 39.108 37.6861 38.892C37.9588 38.6723 38.1652 38.3693 38.3054 37.983C38.4493 37.5928 38.5213 37.1439 38.5213 36.6364C38.5213 36.1326 38.4512 35.6894 38.3111 35.3068C38.1709 34.9242 37.9645 34.625 37.6918 34.4091C37.419 34.1932 37.0838 34.0852 36.6861 34.0852C36.2921 34.0852 35.9588 34.1894 35.6861 34.3977C35.4171 34.6061 35.2107 34.9015 35.0668 35.2841C34.9228 35.6667 34.8509 36.1174 34.8509 36.6364ZM46.5497 41.1705C45.6671 41.1705 44.9039 40.983 44.2599 40.608C43.6198 40.2292 43.1255 39.7027 42.777 39.0284C42.4285 38.3504 42.2543 37.5644 42.2543 36.6705C42.2543 35.7689 42.4285 34.9811 42.777 34.3068C43.1255 33.6288 43.6198 33.1023 44.2599 32.7273C44.9039 32.3485 45.6671 32.1591 46.5497 32.1591C47.4323 32.1591 48.1937 32.3485 48.8338 32.7273C49.4777 33.1023 49.974 33.6288 50.3224 34.3068C50.6709 34.9811 50.8452 35.7689 50.8452 36.6705C50.8452 37.5644 50.6709 38.3504 50.3224 39.0284C49.974 39.7027 49.4777 40.2292 48.8338 40.608C48.1937 40.983 47.4323 41.1705 46.5497 41.1705ZM46.5611 39.2955C46.9626 39.2955 47.2978 39.1818 47.5668 38.9545C47.8357 38.7235 48.0384 38.4091 48.1747 38.0114C48.3149 37.6136 48.3849 37.161 48.3849 36.6534C48.3849 36.1458 48.3149 35.6932 48.1747 35.2955C48.0384 34.8977 47.8357 34.5833 47.5668 34.3523C47.2978 34.1212 46.9626 34.0057 46.5611 34.0057C46.1558 34.0057 45.8149 34.1212 45.5384 34.3523C45.2656 34.5833 45.0592 34.8977 44.919 35.2955C44.7827 35.6932 44.7145 36.1458 44.7145 36.6534C44.7145 37.161 44.7827 37.6136 44.919 38.0114C45.0592 38.4091 45.2656 38.7235 45.5384 38.9545C45.8149 39.1818 46.1558 39.2955 46.5611 39.2955ZM52.419 41V32.2727H54.7656V33.7955H54.8565C55.0156 33.2538 55.2827 32.8447 55.6577 32.5682C56.0327 32.2879 56.4645 32.1477 56.9531 32.1477C57.0743 32.1477 57.205 32.1553 57.3452 32.1705C57.4853 32.1856 57.6084 32.2064 57.7145 32.233V34.3807C57.6009 34.3466 57.4437 34.3163 57.2429 34.2898C57.0421 34.2633 56.8584 34.25 56.6918 34.25C56.3357 34.25 56.0175 34.3277 55.7372 34.483C55.4607 34.6345 55.241 34.8466 55.0781 35.1193C54.919 35.392 54.8395 35.7064 54.8395 36.0625V41H52.419ZM64.0455 32.2727V34.0909H58.7898V32.2727H64.0455ZM59.983 30.1818H62.4034V38.3182C62.4034 38.5417 62.4375 38.7159 62.5057 38.8409C62.5739 38.9621 62.6686 39.0473 62.7898 39.0966C62.9148 39.1458 63.0587 39.1705 63.2216 39.1705C63.3352 39.1705 63.4489 39.161 63.5625 39.142C63.6761 39.1193 63.7633 39.1023 63.8239 39.0909L64.2045 40.892C64.0833 40.9299 63.9129 40.9735 63.6932 41.0227C63.4735 41.0758 63.2064 41.108 62.892 41.1193C62.3087 41.142 61.7973 41.0644 61.358 40.8864C60.9223 40.7083 60.5833 40.4318 60.3409 40.0568C60.0985 39.6818 59.9792 39.2083 59.983 38.6364V30.1818ZM71.2188 37.2841V32.2727H73.6392V41H71.3153V39.4148H71.2244C71.0275 39.9261 70.6998 40.3371 70.2415 40.6477C69.7869 40.9583 69.232 41.1136 68.5767 41.1136C67.9934 41.1136 67.4801 40.9811 67.0369 40.7159C66.5938 40.4508 66.2472 40.0739 65.9972 39.5852C65.7509 39.0966 65.6259 38.5114 65.6222 37.8295V32.2727H68.0426V37.3977C68.0464 37.9129 68.1847 38.3201 68.4574 38.6193C68.7301 38.9186 69.0956 39.0682 69.554 39.0682C69.8456 39.0682 70.1184 39.0019 70.3722 38.8693C70.6259 38.733 70.8305 38.5322 70.9858 38.267C71.1449 38.0019 71.2225 37.6742 71.2188 37.2841ZM77.9957 35.9545V41H75.5753V32.2727H77.8821V33.8125H77.9844C78.1776 33.3049 78.5014 32.9034 78.956 32.608C79.4105 32.3087 79.9616 32.1591 80.6094 32.1591C81.2154 32.1591 81.7438 32.2917 82.1946 32.5568C82.6454 32.822 82.9957 33.2008 83.2457 33.6932C83.4957 34.1818 83.6207 34.7652 83.6207 35.4432V41H81.2003V35.875C81.2041 35.3409 81.0677 34.9242 80.7912 34.625C80.5147 34.322 80.134 34.1705 79.6491 34.1705C79.3234 34.1705 79.0355 34.2405 78.7855 34.3807C78.5393 34.5208 78.3461 34.7254 78.206 34.9943C78.0696 35.2595 77.9995 35.5795 77.9957 35.9545ZM85.5284 41V32.2727H87.9489V41H85.5284ZM86.7443 31.1477C86.3845 31.1477 86.0758 31.0284 85.8182 30.7898C85.5644 30.5473 85.4375 30.2576 85.4375 29.9205C85.4375 29.5871 85.5644 29.3011 85.8182 29.0625C86.0758 28.8201 86.3845 28.6989 86.7443 28.6989C87.1042 28.6989 87.411 28.8201 87.6648 29.0625C87.9223 29.3011 88.0511 29.5871 88.0511 29.9205C88.0511 30.2576 87.9223 30.5473 87.6648 30.7898C87.411 31.0284 87.1042 31.1477 86.7443 31.1477ZM93.1037 41.142C92.4408 41.142 91.8404 40.9716 91.3026 40.6307C90.7685 40.286 90.3442 39.7803 90.0298 39.1136C89.7192 38.4432 89.5639 37.6212 89.5639 36.6477C89.5639 35.6477 89.7249 34.8163 90.0469 34.1534C90.3688 33.4867 90.7969 32.9886 91.331 32.6591C91.8688 32.3258 92.4579 32.1591 93.098 32.1591C93.5866 32.1591 93.9938 32.2424 94.3196 32.4091C94.6491 32.572 94.9143 32.7765 95.1151 33.0227C95.3196 33.2652 95.4749 33.5038 95.581 33.7386H95.6548V29.3636H98.0696V41H95.6832V39.6023H95.581C95.4673 39.8447 95.3063 40.0852 95.098 40.3239C94.8935 40.5587 94.6264 40.7538 94.2969 40.9091C93.9711 41.0644 93.5734 41.142 93.1037 41.142ZM93.8707 39.2159C94.2609 39.2159 94.5904 39.1098 94.8594 38.8977C95.1321 38.6818 95.3404 38.3807 95.4844 37.9943C95.6321 37.608 95.706 37.1553 95.706 36.6364C95.706 36.1174 95.634 35.6667 95.4901 35.2841C95.3461 34.9015 95.1378 34.6061 94.8651 34.3977C94.5923 34.1894 94.2609 34.0852 93.8707 34.0852C93.473 34.0852 93.1378 34.1932 92.8651 34.4091C92.5923 34.625 92.3859 34.9242 92.2457 35.3068C92.1056 35.6894 92.0355 36.1326 92.0355 36.6364C92.0355 37.1439 92.1056 37.5928 92.2457 37.983C92.3897 38.3693 92.5961 38.6723 92.8651 38.892C93.1378 39.108 93.473 39.2159 93.8707 39.2159ZM102.548 41.1648C101.991 41.1648 101.495 41.0682 101.06 40.875C100.624 40.678 100.279 40.3883 100.026 40.0057C99.7756 39.6193 99.6506 39.1383 99.6506 38.5625C99.6506 38.0777 99.7396 37.6705 99.9176 37.3409C100.096 37.0114 100.338 36.7462 100.645 36.5455C100.952 36.3447 101.3 36.1932 101.69 36.0909C102.084 35.9886 102.497 35.9167 102.929 35.875C103.437 35.822 103.846 35.7727 104.156 35.7273C104.467 35.678 104.692 35.6061 104.832 35.5114C104.973 35.4167 105.043 35.2765 105.043 35.0909V35.0568C105.043 34.697 104.929 34.4186 104.702 34.2216C104.478 34.0246 104.16 33.9261 103.747 33.9261C103.312 33.9261 102.965 34.0227 102.707 34.2159C102.45 34.4053 102.279 34.6439 102.196 34.9318L99.9574 34.75C100.071 34.2197 100.295 33.7614 100.628 33.375C100.961 32.9848 101.391 32.6856 101.918 32.4773C102.448 32.2652 103.062 32.1591 103.759 32.1591C104.243 32.1591 104.707 32.2159 105.151 32.3295C105.598 32.4432 105.993 32.6193 106.338 32.858C106.687 33.0966 106.961 33.4034 107.162 33.7784C107.363 34.1496 107.463 34.5947 107.463 35.1136V41H105.168V39.7898H105.099C104.959 40.0625 104.772 40.303 104.537 40.5114C104.302 40.7159 104.02 40.8769 103.69 40.9943C103.361 41.108 102.98 41.1648 102.548 41.1648ZM103.241 39.4943C103.598 39.4943 103.912 39.4242 104.185 39.2841C104.457 39.1402 104.671 38.947 104.827 38.7045C104.982 38.4621 105.06 38.1875 105.06 37.8807V36.9545C104.984 37.0038 104.88 37.0492 104.747 37.0909C104.618 37.1288 104.473 37.1648 104.31 37.1989C104.147 37.2292 103.984 37.2576 103.821 37.2841C103.658 37.3068 103.51 37.3277 103.378 37.3466C103.094 37.3883 102.846 37.4545 102.634 37.5455C102.421 37.6364 102.257 37.7595 102.139 37.9148C102.022 38.0663 101.963 38.2557 101.963 38.483C101.963 38.8125 102.082 39.0644 102.321 39.2386C102.563 39.4091 102.87 39.4943 103.241 39.4943ZM112.557 41.142C111.894 41.142 111.294 40.9716 110.756 40.6307C110.222 40.286 109.797 39.7803 109.483 39.1136C109.172 38.4432 109.017 37.6212 109.017 36.6477C109.017 35.6477 109.178 34.8163 109.5 34.1534C109.822 33.4867 110.25 32.9886 110.784 32.6591C111.322 32.3258 111.911 32.1591 112.551 32.1591C113.04 32.1591 113.447 32.2424 113.773 32.4091C114.102 32.572 114.367 32.7765 114.568 33.0227C114.773 33.2652 114.928 33.5038 115.034 33.7386H115.108V29.3636H117.523V41H115.136V39.6023H115.034C114.92 39.8447 114.759 40.0852 114.551 40.3239C114.347 40.5587 114.08 40.7538 113.75 40.9091C113.424 41.0644 113.027 41.142 112.557 41.142ZM113.324 39.2159C113.714 39.2159 114.044 39.1098 114.312 38.8977C114.585 38.6818 114.794 38.3807 114.938 37.9943C115.085 37.608 115.159 37.1553 115.159 36.6364C115.159 36.1174 115.087 35.6667 114.943 35.2841C114.799 34.9015 114.591 34.6061 114.318 34.3977C114.045 34.1894 113.714 34.0852 113.324 34.0852C112.926 34.0852 112.591 34.1932 112.318 34.4091C112.045 34.625 111.839 34.9242 111.699 35.3068C111.559 35.6894 111.489 36.1326 111.489 36.6364C111.489 37.1439 111.559 37.5928 111.699 37.983C111.843 38.3693 112.049 38.6723 112.318 38.892C112.591 39.108 112.926 39.2159 113.324 39.2159ZM123.49 41.1705C122.592 41.1705 121.82 40.9886 121.172 40.625C120.528 40.2576 120.032 39.7386 119.683 39.0682C119.335 38.3939 119.161 37.5966 119.161 36.6761C119.161 35.7784 119.335 34.9905 119.683 34.3125C120.032 33.6345 120.522 33.1061 121.155 32.7273C121.791 32.3485 122.537 32.1591 123.393 32.1591C123.969 32.1591 124.505 32.2519 125.001 32.4375C125.501 32.6193 125.937 32.8939 126.308 33.2614C126.683 33.6288 126.975 34.0909 127.183 34.6477C127.392 35.2008 127.496 35.8485 127.496 36.5909V37.2557H120.126V35.7557H125.217C125.217 35.4072 125.142 35.0985 124.99 34.8295C124.839 34.5606 124.628 34.3504 124.359 34.1989C124.094 34.0436 123.786 33.9659 123.433 33.9659C123.066 33.9659 122.74 34.0511 122.456 34.2216C122.176 34.3883 121.956 34.6136 121.797 34.8977C121.638 35.178 121.556 35.4905 121.553 35.8352V37.2614C121.553 37.6932 121.632 38.0663 121.791 38.3807C121.954 38.6951 122.183 38.9375 122.479 39.108C122.774 39.2784 123.125 39.3636 123.53 39.3636C123.799 39.3636 124.045 39.3258 124.268 39.25C124.492 39.1742 124.683 39.0606 124.842 38.9091C125.001 38.7576 125.123 38.572 125.206 38.3523L127.445 38.5C127.331 39.0379 127.098 39.5076 126.746 39.9091C126.397 40.3068 125.946 40.6174 125.393 40.8409C124.844 41.0606 124.21 41.1705 123.49 41.1705ZM135.994 41.142C135.331 41.142 134.731 40.9716 134.193 40.6307C133.659 40.286 133.235 39.7803 132.92 39.1136C132.61 38.4432 132.455 37.6212 132.455 36.6477C132.455 35.6477 132.616 34.8163 132.938 34.1534C133.259 33.4867 133.688 32.9886 134.222 32.6591C134.759 32.3258 135.348 32.1591 135.989 32.1591C136.477 32.1591 136.884 32.2424 137.21 32.4091C137.54 32.572 137.805 32.7765 138.006 33.0227C138.21 33.2652 138.366 33.5038 138.472 33.7386H138.545V29.3636H140.96V41H138.574V39.6023H138.472C138.358 39.8447 138.197 40.0852 137.989 40.3239C137.784 40.5587 137.517 40.7538 137.188 40.9091C136.862 41.0644 136.464 41.142 135.994 41.142ZM136.761 39.2159C137.152 39.2159 137.481 39.1098 137.75 38.8977C138.023 38.6818 138.231 38.3807 138.375 37.9943C138.523 37.608 138.597 37.1553 138.597 36.6364C138.597 36.1174 138.525 35.6667 138.381 35.2841C138.237 34.9015 138.028 34.6061 137.756 34.3977C137.483 34.1894 137.152 34.0852 136.761 34.0852C136.364 34.0852 136.028 34.1932 135.756 34.4091C135.483 34.625 135.277 34.9242 135.136 35.3068C134.996 35.6894 134.926 36.1326 134.926 36.6364C134.926 37.1439 134.996 37.5928 135.136 37.983C135.28 38.3693 135.487 38.6723 135.756 38.892C136.028 39.108 136.364 39.2159 136.761 39.2159ZM146.928 41.1705C146.03 41.1705 145.257 40.9886 144.609 40.625C143.965 40.2576 143.469 39.7386 143.121 39.0682C142.772 38.3939 142.598 37.5966 142.598 36.6761C142.598 35.7784 142.772 34.9905 143.121 34.3125C143.469 33.6345 143.96 33.1061 144.592 32.7273C145.229 32.3485 145.975 32.1591 146.831 32.1591C147.407 32.1591 147.943 32.2519 148.439 32.4375C148.939 32.6193 149.375 32.8939 149.746 33.2614C150.121 33.6288 150.412 34.0909 150.621 34.6477C150.829 35.2008 150.933 35.8485 150.933 36.5909V37.2557H143.564V35.7557H148.655C148.655 35.4072 148.579 35.0985 148.428 34.8295C148.276 34.5606 148.066 34.3504 147.797 34.1989C147.532 34.0436 147.223 33.9659 146.871 33.9659C146.503 33.9659 146.178 34.0511 145.893 34.2216C145.613 34.3883 145.393 34.6136 145.234 34.8977C145.075 35.178 144.994 35.4905 144.99 35.8352V37.2614C144.99 37.6932 145.07 38.0663 145.229 38.3807C145.392 38.6951 145.621 38.9375 145.916 39.108C146.212 39.2784 146.562 39.3636 146.967 39.3636C147.236 39.3636 147.482 39.3258 147.706 39.25C147.929 39.1742 148.121 39.0606 148.28 38.9091C148.439 38.7576 148.56 38.572 148.643 38.3523L150.882 38.5C150.768 39.0379 150.536 39.5076 150.183 39.9091C149.835 40.3068 149.384 40.6174 148.831 40.8409C148.282 41.0606 147.647 41.1705 146.928 41.1705ZM156.261 41V29.3636H160.852C161.735 29.3636 162.487 29.5322 163.108 29.8693C163.729 30.2027 164.203 30.6667 164.528 31.2614C164.858 31.8523 165.023 32.5341 165.023 33.3068C165.023 34.0795 164.856 34.7614 164.523 35.3523C164.189 35.9432 163.706 36.4034 163.074 36.733C162.445 37.0625 161.684 37.2273 160.79 37.2273H157.864V35.2557H160.392C160.866 35.2557 161.256 35.1742 161.562 35.0114C161.873 34.8447 162.104 34.6155 162.256 34.3239C162.411 34.0284 162.489 33.6894 162.489 33.3068C162.489 32.9205 162.411 32.5833 162.256 32.2955C162.104 32.0038 161.873 31.7784 161.562 31.6193C161.252 31.4564 160.858 31.375 160.381 31.375H158.722V41H156.261ZM166.575 41V32.2727H168.922V33.7955H169.013C169.172 33.2538 169.439 32.8447 169.814 32.5682C170.189 32.2879 170.621 32.1477 171.109 32.1477C171.231 32.1477 171.361 32.1553 171.501 32.1705C171.642 32.1856 171.765 32.2064 171.871 32.233V34.3807C171.757 34.3466 171.6 34.3163 171.399 34.2898C171.198 34.2633 171.015 34.25 170.848 34.25C170.492 34.25 170.174 34.3277 169.893 34.483C169.617 34.6345 169.397 34.8466 169.234 35.1193C169.075 35.392 168.996 35.7064 168.996 36.0625V41H166.575ZM176.659 41.1705C175.777 41.1705 175.013 40.983 174.369 40.608C173.729 40.2292 173.235 39.7027 172.886 39.0284C172.538 38.3504 172.364 37.5644 172.364 36.6705C172.364 35.7689 172.538 34.9811 172.886 34.3068C173.235 33.6288 173.729 33.1023 174.369 32.7273C175.013 32.3485 175.777 32.1591 176.659 32.1591C177.542 32.1591 178.303 32.3485 178.943 32.7273C179.587 33.1023 180.083 33.6288 180.432 34.3068C180.78 34.9811 180.955 35.7689 180.955 36.6705C180.955 37.5644 180.78 38.3504 180.432 39.0284C180.083 39.7027 179.587 40.2292 178.943 40.608C178.303 40.983 177.542 41.1705 176.659 41.1705ZM176.67 39.2955C177.072 39.2955 177.407 39.1818 177.676 38.9545C177.945 38.7235 178.148 38.4091 178.284 38.0114C178.424 37.6136 178.494 37.161 178.494 36.6534C178.494 36.1458 178.424 35.6932 178.284 35.2955C178.148 34.8977 177.945 34.5833 177.676 34.3523C177.407 34.1212 177.072 34.0057 176.67 34.0057C176.265 34.0057 175.924 34.1212 175.648 34.3523C175.375 34.5833 175.169 34.8977 175.028 35.2955C174.892 35.6932 174.824 36.1458 174.824 36.6534C174.824 37.161 174.892 37.6136 175.028 38.0114C175.169 38.4091 175.375 38.7235 175.648 38.9545C175.924 39.1818 176.265 39.2955 176.67 39.2955ZM186.472 41.1705C185.578 41.1705 184.809 40.9811 184.165 40.6023C183.525 40.2197 183.032 39.6894 182.688 39.0114C182.347 38.3333 182.176 37.553 182.176 36.6705C182.176 35.7765 182.348 34.9924 182.693 34.3182C183.042 33.6402 183.536 33.1117 184.176 32.733C184.816 32.3504 185.578 32.1591 186.46 32.1591C187.222 32.1591 187.888 32.2973 188.46 32.5739C189.032 32.8504 189.485 33.2386 189.818 33.7386C190.152 34.2386 190.335 34.8258 190.369 35.5H188.085C188.021 35.0644 187.85 34.714 187.574 34.4489C187.301 34.1799 186.943 34.0455 186.5 34.0455C186.125 34.0455 185.797 34.1477 185.517 34.3523C185.241 34.553 185.025 34.8466 184.869 35.233C184.714 35.6193 184.636 36.0871 184.636 36.6364C184.636 37.1932 184.712 37.6667 184.864 38.0568C185.019 38.447 185.237 38.7443 185.517 38.9489C185.797 39.1534 186.125 39.2557 186.5 39.2557C186.777 39.2557 187.025 39.1989 187.244 39.0852C187.468 38.9716 187.652 38.8068 187.795 38.5909C187.943 38.3712 188.04 38.108 188.085 37.8011H190.369C190.331 38.4678 190.15 39.0549 189.824 39.5625C189.502 40.0663 189.057 40.4602 188.489 40.7443C187.92 41.0284 187.248 41.1705 186.472 41.1705ZM195.896 41.1705C194.999 41.1705 194.226 40.9886 193.578 40.625C192.934 40.2576 192.438 39.7386 192.089 39.0682C191.741 38.3939 191.567 37.5966 191.567 36.6761C191.567 35.7784 191.741 34.9905 192.089 34.3125C192.438 33.6345 192.929 33.1061 193.561 32.7273C194.197 32.3485 194.944 32.1591 195.8 32.1591C196.375 32.1591 196.911 32.2519 197.408 32.4375C197.908 32.6193 198.343 32.8939 198.714 33.2614C199.089 33.6288 199.381 34.0909 199.589 34.6477C199.798 35.2008 199.902 35.8485 199.902 36.5909V37.2557H192.533V35.7557H197.624C197.624 35.4072 197.548 35.0985 197.396 34.8295C197.245 34.5606 197.035 34.3504 196.766 34.1989C196.5 34.0436 196.192 33.9659 195.839 33.9659C195.472 33.9659 195.146 34.0511 194.862 34.2216C194.582 34.3883 194.362 34.6136 194.203 34.8977C194.044 35.178 193.963 35.4905 193.959 35.8352V37.2614C193.959 37.6932 194.038 38.0663 194.197 38.3807C194.36 38.6951 194.589 38.9375 194.885 39.108C195.18 39.2784 195.531 39.3636 195.936 39.3636C196.205 39.3636 196.451 39.3258 196.675 39.25C196.898 39.1742 197.089 39.0606 197.249 38.9091C197.408 38.7576 197.529 38.572 197.612 38.3523L199.851 38.5C199.737 39.0379 199.504 39.5076 199.152 39.9091C198.804 40.3068 198.353 40.6174 197.8 40.8409C197.25 41.0606 196.616 41.1705 195.896 41.1705ZM208.743 34.7614L206.527 34.8977C206.489 34.7083 206.408 34.5379 206.283 34.3864C206.158 34.2311 205.993 34.108 205.788 34.017C205.588 33.9223 205.347 33.875 205.067 33.875C204.692 33.875 204.375 33.9545 204.118 34.1136C203.86 34.2689 203.732 34.4773 203.732 34.7386C203.732 34.947 203.815 35.1231 203.982 35.267C204.148 35.411 204.434 35.5265 204.839 35.6136L206.419 35.9318C207.268 36.1061 207.9 36.3864 208.317 36.7727C208.733 37.1591 208.942 37.6667 208.942 38.2955C208.942 38.8674 208.773 39.3693 208.436 39.8011C208.103 40.233 207.644 40.5701 207.061 40.8125C206.482 41.0511 205.813 41.1705 205.055 41.1705C203.9 41.1705 202.98 40.9299 202.294 40.4489C201.612 39.964 201.213 39.3049 201.095 38.4716L203.476 38.3466C203.548 38.6989 203.722 38.9678 203.999 39.1534C204.275 39.3352 204.629 39.4261 205.061 39.4261C205.485 39.4261 205.826 39.3447 206.084 39.1818C206.345 39.0152 206.478 38.8011 206.482 38.5398C206.478 38.3201 206.385 38.1402 206.203 38C206.021 37.8561 205.741 37.7462 205.362 37.6705L203.851 37.3693C202.999 37.1989 202.364 36.9034 201.947 36.483C201.535 36.0625 201.328 35.5265 201.328 34.875C201.328 34.3144 201.48 33.8314 201.783 33.4261C202.089 33.0208 202.519 32.7083 203.072 32.4886C203.629 32.2689 204.281 32.1591 205.027 32.1591C206.129 32.1591 206.997 32.392 207.629 32.858C208.266 33.3239 208.637 33.9583 208.743 34.7614ZM217.727 34.7614L215.511 34.8977C215.473 34.7083 215.392 34.5379 215.267 34.3864C215.142 34.2311 214.977 34.108 214.773 34.017C214.572 33.9223 214.331 33.875 214.051 33.875C213.676 33.875 213.36 33.9545 213.102 34.1136C212.845 34.2689 212.716 34.4773 212.716 34.7386C212.716 34.947 212.799 35.1231 212.966 35.267C213.133 35.411 213.419 35.5265 213.824 35.6136L215.403 35.9318C216.252 36.1061 216.884 36.3864 217.301 36.7727C217.718 37.1591 217.926 37.6667 217.926 38.2955C217.926 38.8674 217.758 39.3693 217.42 39.8011C217.087 40.233 216.629 40.5701 216.045 40.8125C215.466 41.0511 214.797 41.1705 214.04 41.1705C212.884 41.1705 211.964 40.9299 211.278 40.4489C210.597 39.964 210.197 39.3049 210.08 38.4716L212.46 38.3466C212.532 38.6989 212.706 38.9678 212.983 39.1534C213.259 39.3352 213.614 39.4261 214.045 39.4261C214.47 39.4261 214.811 39.3447 215.068 39.1818C215.33 39.0152 215.462 38.8011 215.466 38.5398C215.462 38.3201 215.369 38.1402 215.188 38C215.006 37.8561 214.725 37.7462 214.347 37.6705L212.835 37.3693C211.983 37.1989 211.348 36.9034 210.932 36.483C210.519 36.0625 210.312 35.5265 210.312 34.875C210.312 34.3144 210.464 33.8314 210.767 33.4261C211.074 33.0208 211.504 32.7083 212.057 32.4886C212.614 32.2689 213.265 32.1591 214.011 32.1591C215.114 32.1591 215.981 32.392 216.614 32.858C217.25 33.3239 217.621 33.9583 217.727 34.7614ZM223.393 41.1705C222.511 41.1705 221.748 40.983 221.104 40.608C220.464 40.2292 219.969 39.7027 219.621 39.0284C219.272 38.3504 219.098 37.5644 219.098 36.6705C219.098 35.7689 219.272 34.9811 219.621 34.3068C219.969 33.6288 220.464 33.1023 221.104 32.7273C221.748 32.3485 222.511 32.1591 223.393 32.1591C224.276 32.1591 225.037 32.3485 225.678 32.7273C226.321 33.1023 226.818 33.6288 227.166 34.3068C227.515 34.9811 227.689 35.7689 227.689 36.6705C227.689 37.5644 227.515 38.3504 227.166 39.0284C226.818 39.7027 226.321 40.2292 225.678 40.608C225.037 40.983 224.276 41.1705 223.393 41.1705ZM223.405 39.2955C223.806 39.2955 224.142 39.1818 224.411 38.9545C224.679 38.7235 224.882 38.4091 225.018 38.0114C225.159 37.6136 225.229 37.161 225.229 36.6534C225.229 36.1458 225.159 35.6932 225.018 35.2955C224.882 34.8977 224.679 34.5833 224.411 34.3523C224.142 34.1212 223.806 34.0057 223.405 34.0057C223 34.0057 222.659 34.1212 222.382 34.3523C222.109 34.5833 221.903 34.8977 221.763 35.2955C221.626 35.6932 221.558 36.1458 221.558 36.6534C221.558 37.161 221.626 37.6136 221.763 38.0114C221.903 38.4091 222.109 38.7235 222.382 38.9545C222.659 39.1818 223 39.2955 223.405 39.2955ZM236.182 41.142C235.519 41.142 234.919 40.9716 234.381 40.6307C233.847 40.286 233.422 39.7803 233.108 39.1136C232.797 38.4432 232.642 37.6212 232.642 36.6477C232.642 35.6477 232.803 34.8163 233.125 34.1534C233.447 33.4867 233.875 32.9886 234.409 32.6591C234.947 32.3258 235.536 32.1591 236.176 32.1591C236.665 32.1591 237.072 32.2424 237.398 32.4091C237.727 32.572 237.992 32.7765 238.193 33.0227C238.398 33.2652 238.553 33.5038 238.659 33.7386H238.733V29.3636H241.148V41H238.761V39.6023H238.659C238.545 39.8447 238.384 40.0852 238.176 40.3239C237.972 40.5587 237.705 40.7538 237.375 40.9091C237.049 41.0644 236.652 41.142 236.182 41.142ZM236.949 39.2159C237.339 39.2159 237.669 39.1098 237.938 38.8977C238.21 38.6818 238.419 38.3807 238.562 37.9943C238.71 37.608 238.784 37.1553 238.784 36.6364C238.784 36.1174 238.712 35.6667 238.568 35.2841C238.424 34.9015 238.216 34.6061 237.943 34.3977C237.67 34.1894 237.339 34.0852 236.949 34.0852C236.551 34.0852 236.216 34.1932 235.943 34.4091C235.67 34.625 235.464 34.9242 235.324 35.3068C235.184 35.6894 235.114 36.1326 235.114 36.6364C235.114 37.1439 235.184 37.5928 235.324 37.983C235.468 38.3693 235.674 38.6723 235.943 38.892C236.216 39.108 236.551 39.2159 236.949 39.2159ZM247.115 41.1705C246.217 41.1705 245.445 40.9886 244.797 40.625C244.153 40.2576 243.657 39.7386 243.308 39.0682C242.96 38.3939 242.786 37.5966 242.786 36.6761C242.786 35.7784 242.96 34.9905 243.308 34.3125C243.657 33.6345 244.147 33.1061 244.78 32.7273C245.416 32.3485 246.162 32.1591 247.018 32.1591C247.594 32.1591 248.13 32.2519 248.626 32.4375C249.126 32.6193 249.562 32.8939 249.933 33.2614C250.308 33.6288 250.6 34.0909 250.808 34.6477C251.017 35.2008 251.121 35.8485 251.121 36.5909V37.2557H243.751V35.7557H248.842C248.842 35.4072 248.767 35.0985 248.615 34.8295C248.464 34.5606 248.253 34.3504 247.984 34.1989C247.719 34.0436 247.411 33.9659 247.058 33.9659C246.691 33.9659 246.365 34.0511 246.081 34.2216C245.801 34.3883 245.581 34.6136 245.422 34.8977C245.263 35.178 245.181 35.4905 245.178 35.8352V37.2614C245.178 37.6932 245.257 38.0663 245.416 38.3807C245.579 38.6951 245.808 38.9375 246.104 39.108C246.399 39.2784 246.75 39.3636 247.155 39.3636C247.424 39.3636 247.67 39.3258 247.893 39.25C248.117 39.1742 248.308 39.0606 248.467 38.9091C248.626 38.7576 248.748 38.572 248.831 38.3523L251.07 38.5C250.956 39.0379 250.723 39.5076 250.371 39.9091C250.022 40.3068 249.571 40.6174 249.018 40.8409C248.469 41.0606 247.835 41.1705 247.115 41.1705ZM258.551 29.3636L261.364 38.2045H261.472L264.29 29.3636H267.017L263.006 41H259.835L255.818 29.3636H258.551ZM271.365 41.1705C270.467 41.1705 269.695 40.9886 269.047 40.625C268.403 40.2576 267.907 39.7386 267.558 39.0682C267.21 38.3939 267.036 37.5966 267.036 36.6761C267.036 35.7784 267.21 34.9905 267.558 34.3125C267.907 33.6345 268.397 33.1061 269.03 32.7273C269.666 32.3485 270.412 32.1591 271.268 32.1591C271.844 32.1591 272.38 32.2519 272.876 32.4375C273.376 32.6193 273.812 32.8939 274.183 33.2614C274.558 33.6288 274.85 34.0909 275.058 34.6477C275.267 35.2008 275.371 35.8485 275.371 36.5909V37.2557H268.001V35.7557H273.092C273.092 35.4072 273.017 35.0985 272.865 34.8295C272.714 34.5606 272.503 34.3504 272.234 34.1989C271.969 34.0436 271.661 33.9659 271.308 33.9659C270.941 33.9659 270.615 34.0511 270.331 34.2216C270.051 34.3883 269.831 34.6136 269.672 34.8977C269.513 35.178 269.431 35.4905 269.428 35.8352V37.2614C269.428 37.6932 269.507 38.0663 269.666 38.3807C269.829 38.6951 270.058 38.9375 270.354 39.108C270.649 39.2784 271 39.3636 271.405 39.3636C271.674 39.3636 271.92 39.3258 272.143 39.25C272.367 39.1742 272.558 39.0606 272.717 38.9091C272.876 38.7576 272.998 38.572 273.081 38.3523L275.32 38.5C275.206 39.0379 274.973 39.5076 274.621 39.9091C274.272 40.3068 273.821 40.6174 273.268 40.8409C272.719 41.0606 272.085 41.1705 271.365 41.1705ZM279.371 35.9545V41H276.95V32.2727H279.257V33.8125H279.359C279.553 33.3049 279.876 32.9034 280.331 32.608C280.786 32.3087 281.337 32.1591 281.984 32.1591C282.59 32.1591 283.119 32.2917 283.57 32.5568C284.02 32.822 284.371 33.2008 284.621 33.6932C284.871 34.1818 284.996 34.7652 284.996 35.4432V41H282.575V35.875C282.579 35.3409 282.443 34.9242 282.166 34.625C281.89 34.322 281.509 34.1705 281.024 34.1705C280.698 34.1705 280.411 34.2405 280.161 34.3807C279.914 34.5208 279.721 34.7254 279.581 34.9943C279.445 35.2595 279.375 35.5795 279.371 35.9545ZM290.119 41.142C289.456 41.142 288.856 40.9716 288.318 40.6307C287.784 40.286 287.36 39.7803 287.045 39.1136C286.735 38.4432 286.58 37.6212 286.58 36.6477C286.58 35.6477 286.741 34.8163 287.062 34.1534C287.384 33.4867 287.813 32.9886 288.347 32.6591C288.884 32.3258 289.473 32.1591 290.114 32.1591C290.602 32.1591 291.009 32.2424 291.335 32.4091C291.665 32.572 291.93 32.7765 292.131 33.0227C292.335 33.2652 292.491 33.5038 292.597 33.7386H292.67V29.3636H295.085V41H292.699V39.6023H292.597C292.483 39.8447 292.322 40.0852 292.114 40.3239C291.909 40.5587 291.642 40.7538 291.312 40.9091C290.987 41.0644 290.589 41.142 290.119 41.142ZM290.886 39.2159C291.277 39.2159 291.606 39.1098 291.875 38.8977C292.148 38.6818 292.356 38.3807 292.5 37.9943C292.648 37.608 292.722 37.1553 292.722 36.6364C292.722 36.1174 292.65 35.6667 292.506 35.2841C292.362 34.9015 292.153 34.6061 291.881 34.3977C291.608 34.1894 291.277 34.0852 290.886 34.0852C290.489 34.0852 290.153 34.1932 289.881 34.4091C289.608 34.625 289.402 34.9242 289.261 35.3068C289.121 35.6894 289.051 36.1326 289.051 36.6364C289.051 37.1439 289.121 37.5928 289.261 37.983C289.405 38.3693 289.612 38.6723 289.881 38.892C290.153 39.108 290.489 39.2159 290.886 39.2159ZM299.564 41.1648C299.007 41.1648 298.511 41.0682 298.075 40.875C297.64 40.678 297.295 40.3883 297.041 40.0057C296.791 39.6193 296.666 39.1383 296.666 38.5625C296.666 38.0777 296.755 37.6705 296.933 37.3409C297.111 37.0114 297.354 36.7462 297.661 36.5455C297.967 36.3447 298.316 36.1932 298.706 36.0909C299.1 35.9886 299.513 35.9167 299.945 35.875C300.452 35.822 300.861 35.7727 301.172 35.7273C301.482 35.678 301.708 35.6061 301.848 35.5114C301.988 35.4167 302.058 35.2765 302.058 35.0909V35.0568C302.058 34.697 301.945 34.4186 301.717 34.2216C301.494 34.0246 301.176 33.9261 300.763 33.9261C300.327 33.9261 299.981 34.0227 299.723 34.2159C299.465 34.4053 299.295 34.6439 299.212 34.9318L296.973 34.75C297.087 34.2197 297.31 33.7614 297.643 33.375C297.977 32.9848 298.407 32.6856 298.933 32.4773C299.464 32.2652 300.077 32.1591 300.774 32.1591C301.259 32.1591 301.723 32.2159 302.166 32.3295C302.613 32.4432 303.009 32.6193 303.354 32.858C303.702 33.0966 303.977 33.4034 304.178 33.7784C304.378 34.1496 304.479 34.5947 304.479 35.1136V41H302.183V39.7898H302.115C301.975 40.0625 301.787 40.303 301.553 40.5114C301.318 40.7159 301.036 40.8769 300.706 40.9943C300.376 41.108 299.996 41.1648 299.564 41.1648ZM300.257 39.4943C300.613 39.4943 300.928 39.4242 301.2 39.2841C301.473 39.1402 301.687 38.947 301.842 38.7045C301.998 38.4621 302.075 38.1875 302.075 37.8807V36.9545C302 37.0038 301.895 37.0492 301.763 37.0909C301.634 37.1288 301.488 37.1648 301.325 37.1989C301.162 37.2292 301 37.2576 300.837 37.2841C300.674 37.3068 300.526 37.3277 300.393 37.3466C300.109 37.3883 299.861 37.4545 299.649 37.5455C299.437 37.6364 299.272 37.7595 299.155 37.9148C299.037 38.0663 298.979 38.2557 298.979 38.483C298.979 38.8125 299.098 39.0644 299.337 39.2386C299.579 39.4091 299.886 39.4943 300.257 39.4943ZM313.618 34.7614L311.402 34.8977C311.364 34.7083 311.283 34.5379 311.158 34.3864C311.033 34.2311 310.868 34.108 310.663 34.017C310.463 33.9223 310.222 33.875 309.942 33.875C309.567 33.875 309.25 33.9545 308.993 34.1136C308.735 34.2689 308.607 34.4773 308.607 34.7386C308.607 34.947 308.69 35.1231 308.857 35.267C309.023 35.411 309.309 35.5265 309.714 35.6136L311.294 35.9318C312.143 36.1061 312.775 36.3864 313.192 36.7727C313.608 37.1591 313.817 37.6667 313.817 38.2955C313.817 38.8674 313.648 39.3693 313.311 39.8011C312.978 40.233 312.519 40.5701 311.936 40.8125C311.357 41.0511 310.688 41.1705 309.93 41.1705C308.775 41.1705 307.855 40.9299 307.169 40.4489C306.487 39.964 306.088 39.3049 305.97 38.4716L308.351 38.3466C308.423 38.6989 308.597 38.9678 308.874 39.1534C309.15 39.3352 309.504 39.4261 309.936 39.4261C310.36 39.4261 310.701 39.3447 310.959 39.1818C311.22 39.0152 311.353 38.8011 311.357 38.5398C311.353 38.3201 311.26 38.1402 311.078 38C310.896 37.8561 310.616 37.7462 310.237 37.6705L308.726 37.3693C307.874 37.1989 307.239 36.9034 306.822 36.483C306.41 36.0625 306.203 35.5265 306.203 34.875C306.203 34.3144 306.355 33.8314 306.658 33.4261C306.964 33.0208 307.394 32.7083 307.947 32.4886C308.504 32.2689 309.156 32.1591 309.902 32.1591C311.004 32.1591 311.872 32.392 312.504 32.858C313.141 33.3239 313.512 33.9583 313.618 34.7614Z" fill="white"/>
<path d="M28.8686 56.3828H26.6911C26.6513 56.1011 26.5701 55.8509 26.4474 55.6321C26.3248 55.41 26.1674 55.2211 25.9751 55.0653C25.7829 54.9096 25.5608 54.7902 25.3089 54.7074C25.0604 54.6245 24.7902 54.5831 24.4986 54.5831C23.9716 54.5831 23.5125 54.714 23.1214 54.9759C22.7304 55.2344 22.4271 55.6122 22.2116 56.1094C21.9962 56.6032 21.8885 57.2031 21.8885 57.9091C21.8885 58.6349 21.9962 59.2448 22.2116 59.7386C22.4304 60.2325 22.7353 60.6054 23.1264 60.8572C23.5175 61.1091 23.9699 61.2351 24.4837 61.2351C24.772 61.2351 25.0388 61.197 25.2841 61.1207C25.5327 61.0445 25.7531 60.9335 25.9453 60.7876C26.1375 60.6385 26.2966 60.4579 26.4226 60.2457C26.5518 60.0336 26.6413 59.7917 26.6911 59.5199L28.8686 59.5298C28.8123 59.9972 28.6714 60.4479 28.446 60.8821C28.224 61.313 27.924 61.6991 27.5462 62.0405C27.1716 62.3786 26.7242 62.647 26.2038 62.8459C25.6868 63.0414 25.1018 63.1392 24.4489 63.1392C23.5407 63.1392 22.7287 62.9337 22.0128 62.5227C21.3002 62.1117 20.7367 61.5168 20.3224 60.7379C19.9115 59.959 19.706 59.0161 19.706 57.9091C19.706 56.7988 19.9148 55.8542 20.3324 55.0753C20.75 54.2964 21.3168 53.7031 22.0327 53.2955C22.7486 52.8845 23.554 52.679 24.4489 52.679C25.0388 52.679 25.5857 52.7618 26.0895 52.9276C26.5966 53.0933 27.0457 53.3352 27.4368 53.6534C27.8279 53.9683 28.1461 54.3544 28.3913 54.8118C28.6399 55.2692 28.799 55.7929 28.8686 56.3828ZM33.8228 63.1491C33.0505 63.1491 32.3827 62.9851 31.8192 62.657C31.2591 62.3255 30.8266 61.8648 30.5217 61.2749C30.2167 60.6816 30.0643 59.9938 30.0643 59.2116C30.0643 58.4228 30.2167 57.7334 30.5217 57.1435C30.8266 56.5502 31.2591 56.0895 31.8192 55.7614C32.3827 55.4299 33.0505 55.2642 33.8228 55.2642C34.5951 55.2642 35.2612 55.4299 35.8214 55.7614C36.3848 56.0895 36.819 56.5502 37.1239 57.1435C37.4289 57.7334 37.5813 58.4228 37.5813 59.2116C37.5813 59.9938 37.4289 60.6816 37.1239 61.2749C36.819 61.8648 36.3848 62.3255 35.8214 62.657C35.2612 62.9851 34.5951 63.1491 33.8228 63.1491ZM33.8327 61.5085C34.1841 61.5085 34.4774 61.4091 34.7127 61.2102C34.948 61.008 35.1254 60.733 35.2447 60.3849C35.3673 60.0369 35.4286 59.6409 35.4286 59.1967C35.4286 58.7526 35.3673 58.3565 35.2447 58.0085C35.1254 57.6605 34.948 57.3854 34.7127 57.1832C34.4774 56.9811 34.1841 56.88 33.8327 56.88C33.4781 56.88 33.1798 56.9811 32.9379 57.1832C32.6992 57.3854 32.5186 57.6605 32.396 58.0085C32.2766 58.3565 32.217 58.7526 32.217 59.1967C32.217 59.6409 32.2766 60.0369 32.396 60.3849C32.5186 60.733 32.6992 61.008 32.9379 61.2102C33.1798 61.4091 33.4781 61.5085 33.8327 61.5085ZM38.9585 63V55.3636H40.9769V56.7109H41.0664C41.2255 56.2635 41.4906 55.9105 41.8619 55.652C42.2331 55.3935 42.6772 55.2642 43.1942 55.2642C43.7179 55.2642 44.1637 55.3951 44.5316 55.657C44.8995 55.9155 45.1448 56.2668 45.2674 56.7109H45.3469C45.5027 56.2734 45.7844 55.9238 46.1921 55.6619C46.6031 55.3968 47.0887 55.2642 47.6488 55.2642C48.3614 55.2642 48.9397 55.4912 49.3839 55.9453C49.8313 56.3961 50.055 57.0357 50.055 57.8643V63H47.9421V58.282C47.9421 57.8577 47.8294 57.5395 47.604 57.3274C47.3787 57.1153 47.0969 57.0092 46.7589 57.0092C46.3744 57.0092 46.0745 57.1319 45.859 57.3771C45.6436 57.6191 45.5359 57.9389 45.5359 58.3366V63H43.4826V58.2372C43.4826 57.8627 43.3749 57.5644 43.1594 57.3423C42.9473 57.1203 42.6673 57.0092 42.3192 57.0092C42.0839 57.0092 41.8718 57.0689 41.6829 57.1882C41.4973 57.3042 41.3498 57.4683 41.2404 57.6804C41.131 57.8892 41.0763 58.1345 41.0763 58.4162V63H38.9585ZM51.728 65.8636V55.3636H53.8161V56.6463H53.9105C54.0033 56.4408 54.1375 56.232 54.3132 56.0199C54.4922 55.8045 54.7242 55.6255 55.0092 55.483C55.2976 55.3371 55.6555 55.2642 56.0831 55.2642C56.6399 55.2642 57.1536 55.41 57.6243 55.7017C58.0949 55.9901 58.4711 56.4259 58.7528 57.0092C59.0346 57.5893 59.1754 58.3168 59.1754 59.1918C59.1754 60.0436 59.0379 60.7628 58.7628 61.3494C58.491 61.9328 58.1198 62.3752 57.6491 62.6768C57.1818 62.9751 56.6581 63.1243 56.0781 63.1243C55.6671 63.1243 55.3175 63.0563 55.0291 62.9205C54.7441 62.7846 54.5104 62.6139 54.3281 62.4084C54.1458 62.1996 54.0066 61.9891 53.9105 61.777H53.8459V65.8636H51.728ZM53.8011 59.1818C53.8011 59.6359 53.8641 60.032 53.9901 60.37C54.116 60.7081 54.2983 60.9716 54.5369 61.1605C54.7756 61.3461 55.0656 61.4389 55.407 61.4389C55.7517 61.4389 56.0433 61.3445 56.282 61.1555C56.5206 60.9633 56.7012 60.6982 56.8239 60.3601C56.9498 60.0187 57.0128 59.6259 57.0128 59.1818C57.0128 58.741 56.9515 58.3532 56.8288 58.0185C56.7062 57.6837 56.5256 57.4219 56.2869 57.233C56.0483 57.044 55.755 56.9496 55.407 56.9496C55.0623 56.9496 54.7706 57.0407 54.532 57.223C54.2966 57.4053 54.116 57.6638 53.9901 57.9986C53.8641 58.3333 53.8011 58.7277 53.8011 59.1818ZM62.7053 52.8182V63H60.5874V52.8182H62.7053ZM67.8819 63.1491C67.0964 63.1491 66.4203 62.9901 65.8535 62.6719C65.2901 62.3504 64.8559 61.8963 64.551 61.3097C64.246 60.7197 64.0936 60.022 64.0936 59.2166C64.0936 58.4311 64.246 57.7417 64.551 57.1484C64.8559 56.5552 65.2851 56.0928 65.8386 55.7614C66.3954 55.4299 67.0484 55.2642 67.7974 55.2642C68.3012 55.2642 68.7702 55.3454 69.2044 55.5078C69.6419 55.6669 70.023 55.9072 70.3478 56.2287C70.676 56.5502 70.9312 56.9545 71.1135 57.4418C71.2958 57.9257 71.3869 58.4924 71.3869 59.142V59.7237H64.9387V58.4112H69.3933C69.3933 58.1063 69.327 57.8362 69.1944 57.6009C69.0618 57.3655 68.8779 57.1816 68.6426 57.049C68.4106 56.9131 68.1404 56.8452 67.8322 56.8452C67.5107 56.8452 67.2257 56.9197 66.9771 57.0689C66.7318 57.2147 66.5396 57.4119 66.4004 57.6605C66.2612 57.9058 66.1899 58.1792 66.1866 58.4808V59.7287C66.1866 60.1065 66.2562 60.433 66.3954 60.7081C66.5379 60.9832 66.7385 61.1953 66.997 61.3445C67.2555 61.4936 67.5621 61.5682 67.9167 61.5682C68.152 61.5682 68.3675 61.535 68.563 61.4688C68.7586 61.4025 68.926 61.303 69.0652 61.1705C69.2044 61.0379 69.3104 60.8755 69.3833 60.6832L71.3422 60.8125C71.2427 61.2831 71.0389 61.6941 70.7306 62.0455C70.4257 62.3935 70.0313 62.6652 69.5474 62.8608C69.0668 63.053 68.5117 63.1491 67.8819 63.1491ZM76.8308 55.3636V56.9545H72.2321V55.3636H76.8308ZM73.2761 53.5341H75.394V60.6534C75.394 60.849 75.4238 61.0014 75.4835 61.1108C75.5431 61.2169 75.626 61.2914 75.7321 61.3345C75.8414 61.3776 75.9674 61.3991 76.1099 61.3991C76.2093 61.3991 76.3088 61.3909 76.4082 61.3743C76.5076 61.3544 76.5839 61.3395 76.6369 61.3295L76.97 62.9055C76.8639 62.9387 76.7148 62.9768 76.5225 63.0199C76.3303 63.0663 76.0967 63.0945 75.8216 63.1044C75.3111 63.1243 74.8637 63.0563 74.4792 62.9006C74.0981 62.7448 73.8014 62.5028 73.5893 62.1747C73.3772 61.8466 73.2728 61.4323 73.2761 60.9318V53.5341ZM81.5787 63.1491C80.8064 63.1491 80.1386 62.9851 79.5751 62.657C79.015 62.3255 78.5824 61.8648 78.2775 61.2749C77.9726 60.6816 77.8201 59.9938 77.8201 59.2116C77.8201 58.4228 77.9726 57.7334 78.2775 57.1435C78.5824 56.5502 79.015 56.0895 79.5751 55.7614C80.1386 55.4299 80.8064 55.2642 81.5787 55.2642C82.3509 55.2642 83.0171 55.4299 83.5772 55.7614C84.1407 56.0895 84.5749 56.5502 84.8798 57.1435C85.1847 57.7334 85.3372 58.4228 85.3372 59.2116C85.3372 59.9938 85.1847 60.6816 84.8798 61.2749C84.5749 61.8648 84.1407 62.3255 83.5772 62.657C83.0171 62.9851 82.3509 63.1491 81.5787 63.1491ZM81.5886 61.5085C81.9399 61.5085 82.2333 61.4091 82.4686 61.2102C82.7039 61.008 82.8812 60.733 83.0005 60.3849C83.1232 60.0369 83.1845 59.6409 83.1845 59.1967C83.1845 58.7526 83.1232 58.3565 83.0005 58.0085C82.8812 57.6605 82.7039 57.3854 82.4686 57.1832C82.2333 56.9811 81.9399 56.88 81.5886 56.88C81.234 56.88 80.9357 56.9811 80.6937 57.1832C80.4551 57.3854 80.2744 57.6605 80.1518 58.0085C80.0325 58.3565 79.9728 58.7526 79.9728 59.1967C79.9728 59.6409 80.0325 60.0369 80.1518 60.3849C80.2744 60.733 80.4551 61.008 80.6937 61.2102C80.9357 61.4091 81.234 61.5085 81.5886 61.5085ZM93.4347 63.1491C92.6491 63.1491 91.973 62.9901 91.4062 62.6719C90.8428 62.3504 90.4086 61.8963 90.1037 61.3097C89.7988 60.7197 89.6463 60.022 89.6463 59.2166C89.6463 58.4311 89.7988 57.7417 90.1037 57.1484C90.4086 56.5552 90.8378 56.0928 91.3913 55.7614C91.9482 55.4299 92.6011 55.2642 93.3501 55.2642C93.8539 55.2642 94.3229 55.3454 94.7571 55.5078C95.1946 55.6669 95.5758 55.9072 95.9006 56.2287C96.2287 56.5502 96.4839 56.9545 96.6662 57.4418C96.8485 57.9257 96.9396 58.4924 96.9396 59.142V59.7237H90.4915V58.4112H94.946C94.946 58.1063 94.8797 57.8362 94.7472 57.6009C94.6146 57.3655 94.4306 57.1816 94.1953 57.049C93.9633 56.9131 93.6932 56.8452 93.3849 56.8452C93.0634 56.8452 92.7784 56.9197 92.5298 57.0689C92.2846 57.2147 92.0923 57.4119 91.9531 57.6605C91.8139 57.9058 91.7427 58.1792 91.7393 58.4808V59.7287C91.7393 60.1065 91.8089 60.433 91.9482 60.7081C92.0907 60.9832 92.2912 61.1953 92.5497 61.3445C92.8082 61.4936 93.1148 61.5682 93.4695 61.5682C93.7048 61.5682 93.9202 61.535 94.1158 61.4688C94.3113 61.4025 94.4787 61.303 94.6179 61.1705C94.7571 61.0379 94.8632 60.8755 94.9361 60.6832L96.8949 60.8125C96.7955 61.2831 96.5916 61.6941 96.2834 62.0455C95.9785 62.3935 95.584 62.6652 95.1001 62.8608C94.6196 63.053 94.0644 63.1491 93.4347 63.1491ZM98.3217 63V55.3636H100.34V56.7109H100.43C100.589 56.2635 100.854 55.9105 101.225 55.652C101.596 55.3935 102.04 55.2642 102.558 55.2642C103.081 55.2642 103.527 55.3951 103.895 55.657C104.263 55.9155 104.508 56.2668 104.631 56.7109H104.71C104.866 56.2734 105.148 55.9238 105.555 55.6619C105.966 55.3968 106.452 55.2642 107.012 55.2642C107.725 55.2642 108.303 55.4912 108.747 55.9453C109.195 56.3961 109.418 57.0357 109.418 57.8643V63H107.305V58.282C107.305 57.8577 107.193 57.5395 106.967 57.3274C106.742 57.1153 106.46 57.0092 106.122 57.0092C105.738 57.0092 105.438 57.1319 105.222 57.3771C105.007 57.6191 104.899 57.9389 104.899 58.3366V63H102.846V58.2372C102.846 57.8627 102.738 57.5644 102.523 57.3423C102.311 57.1203 102.031 57.0092 101.683 57.0092C101.447 57.0092 101.235 57.0689 101.046 57.1882C100.861 57.3042 100.713 57.4683 100.604 57.6804C100.494 57.8892 100.44 58.1345 100.44 58.4162V63H98.3217ZM118.741 52.8182V63H116.589V54.8615H116.529L114.197 56.3232V54.4141L116.718 52.8182H118.741ZM124.96 63.1392C124.194 63.1392 123.513 63.0149 122.916 62.7663C122.323 62.5144 121.857 62.1714 121.519 61.7372C121.181 61.303 121.012 60.8108 121.012 60.2607C121.012 59.8364 121.108 59.447 121.3 59.0923C121.496 58.7344 121.761 58.4377 122.096 58.2024C122.431 57.9638 122.805 57.8113 123.219 57.745V57.6754C122.676 57.5661 122.235 57.3026 121.897 56.8849C121.559 56.464 121.39 55.9751 121.39 55.4183C121.39 54.8913 121.544 54.4223 121.852 54.0114C122.161 53.5971 122.583 53.2723 123.12 53.0369C123.66 52.7983 124.273 52.679 124.96 52.679C125.646 52.679 126.257 52.7983 126.794 53.0369C127.334 53.2756 127.759 53.602 128.067 54.0163C128.375 54.4273 128.531 54.8946 128.534 55.4183C128.531 55.9785 128.358 56.4673 128.017 56.8849C127.676 57.3026 127.238 57.5661 126.705 57.6754V57.745C127.112 57.8113 127.482 57.9638 127.813 58.2024C128.148 58.4377 128.413 58.7344 128.609 59.0923C128.808 59.447 128.909 59.8364 128.912 60.2607C128.909 60.8108 128.738 61.303 128.4 61.7372C128.062 62.1714 127.594 62.5144 126.998 62.7663C126.405 63.0149 125.725 63.1392 124.96 63.1392ZM124.96 61.5582C125.301 61.5582 125.599 61.4969 125.854 61.3743C126.11 61.2483 126.308 61.076 126.451 60.8572C126.597 60.6352 126.67 60.38 126.67 60.0916C126.67 59.7966 126.595 59.5365 126.446 59.3111C126.297 59.0824 126.095 58.9034 125.839 58.7741C125.584 58.6416 125.291 58.5753 124.96 58.5753C124.631 58.5753 124.338 58.6416 124.08 58.7741C123.821 58.9034 123.617 59.0824 123.468 59.3111C123.322 59.5365 123.249 59.7966 123.249 60.0916C123.249 60.38 123.321 60.6352 123.463 60.8572C123.606 61.076 123.806 61.2483 124.065 61.3743C124.323 61.4969 124.621 61.5582 124.96 61.5582ZM124.96 57.0092C125.245 57.0092 125.498 56.9512 125.72 56.8352C125.942 56.7192 126.116 56.5585 126.242 56.353C126.368 56.1475 126.431 55.9105 126.431 55.642C126.431 55.3769 126.368 55.1449 126.242 54.946C126.116 54.7438 125.944 54.5864 125.725 54.4737C125.506 54.3577 125.251 54.2997 124.96 54.2997C124.671 54.2997 124.416 54.3577 124.194 54.4737C123.972 54.5864 123.798 54.7438 123.672 54.946C123.549 55.1449 123.488 55.3769 123.488 55.642C123.488 55.9105 123.551 56.1475 123.677 56.353C123.803 56.5585 123.977 56.7192 124.199 56.8352C124.421 56.9512 124.674 57.0092 124.96 57.0092ZM133.677 63V55.3636H135.696V56.7109H135.785C135.944 56.2635 136.209 55.9105 136.581 55.652C136.952 55.3935 137.396 55.2642 137.913 55.2642C138.437 55.2642 138.882 55.3951 139.25 55.657C139.618 55.9155 139.864 56.2668 139.986 56.7109H140.066C140.221 56.2734 140.503 55.9238 140.911 55.6619C141.322 55.3968 141.807 55.2642 142.368 55.2642C143.08 55.2642 143.658 55.4912 144.103 55.9453C144.55 56.3961 144.774 57.0357 144.774 57.8643V63H142.661V58.282C142.661 57.8577 142.548 57.5395 142.323 57.3274C142.097 57.1153 141.816 57.0092 141.478 57.0092C141.093 57.0092 140.793 57.1319 140.578 57.3771C140.362 57.6191 140.255 57.9389 140.255 58.3366V63H138.201V58.2372C138.201 57.8627 138.094 57.5644 137.878 57.3423C137.666 57.1203 137.386 57.0092 137.038 57.0092C136.803 57.0092 136.591 57.0689 136.402 57.1882C136.216 57.3042 136.069 57.4683 135.959 57.6804C135.85 57.8892 135.795 58.1345 135.795 58.4162V63H133.677ZM149.927 63.1491C149.141 63.1491 148.465 62.9901 147.898 62.6719C147.335 62.3504 146.901 61.8963 146.596 61.3097C146.291 60.7197 146.138 60.022 146.138 59.2166C146.138 58.4311 146.291 57.7417 146.596 57.1484C146.901 56.5552 147.33 56.0928 147.884 55.7614C148.44 55.4299 149.093 55.2642 149.842 55.2642C150.346 55.2642 150.815 55.3454 151.249 55.5078C151.687 55.6669 152.068 55.9072 152.393 56.2287C152.721 56.5502 152.976 56.9545 153.158 57.4418C153.341 57.9257 153.432 58.4924 153.432 59.142V59.7237H146.984V58.4112H151.438C151.438 58.1063 151.372 57.8362 151.239 57.6009C151.107 57.3655 150.923 57.1816 150.688 57.049C150.455 56.9131 150.185 56.8452 149.877 56.8452C149.556 56.8452 149.271 56.9197 149.022 57.0689C148.777 57.2147 148.585 57.4119 148.445 57.6605C148.306 57.9058 148.235 58.1792 148.232 58.4808V59.7287C148.232 60.1065 148.301 60.433 148.44 60.7081C148.583 60.9832 148.783 61.1953 149.042 61.3445C149.3 61.4936 149.607 61.5682 149.962 61.5682C150.197 61.5682 150.412 61.535 150.608 61.4688C150.804 61.4025 150.971 61.303 151.11 61.1705C151.249 61.0379 151.355 60.8755 151.428 60.6832L153.387 60.8125C153.288 61.2831 153.084 61.6941 152.776 62.0455C152.471 62.3935 152.076 62.6652 151.592 62.8608C151.112 63.053 150.557 63.1491 149.927 63.1491ZM161.168 57.5412L159.229 57.6605C159.196 57.4948 159.124 57.3456 159.015 57.2131C158.906 57.0772 158.761 56.9695 158.582 56.8899C158.407 56.8071 158.196 56.7656 157.951 56.7656C157.623 56.7656 157.346 56.8352 157.121 56.9744C156.895 57.1103 156.783 57.2926 156.783 57.5213C156.783 57.7036 156.856 57.8577 157.001 57.9837C157.147 58.1096 157.397 58.2107 157.752 58.2869L159.134 58.5653C159.877 58.7178 160.43 58.9631 160.795 59.3011C161.159 59.6392 161.342 60.0833 161.342 60.6335C161.342 61.134 161.194 61.5732 160.899 61.951C160.607 62.3288 160.206 62.6238 159.696 62.8359C159.189 63.0447 158.604 63.1491 157.941 63.1491C156.93 63.1491 156.125 62.9387 155.525 62.5178C154.928 62.0935 154.579 61.5168 154.476 60.7876L156.559 60.6783C156.622 60.9865 156.774 61.2218 157.016 61.3842C157.258 61.5433 157.568 61.6229 157.946 61.6229C158.317 61.6229 158.616 61.5516 158.841 61.4091C159.07 61.2633 159.186 61.076 159.189 60.8473C159.186 60.6551 159.104 60.4976 158.945 60.375C158.786 60.2491 158.541 60.1529 158.21 60.0866L156.887 59.8232C156.141 59.674 155.586 59.4155 155.222 59.0476C154.86 58.6797 154.68 58.2107 154.68 57.6406C154.68 57.1501 154.812 56.7275 155.077 56.3729C155.346 56.0182 155.722 55.7448 156.206 55.5526C156.693 55.3603 157.263 55.2642 157.916 55.2642C158.881 55.2642 159.64 55.468 160.193 55.8757C160.75 56.2834 161.075 56.8385 161.168 57.5412ZM166.155 63.1491C165.37 63.1491 164.694 62.9901 164.127 62.6719C163.564 62.3504 163.129 61.8963 162.824 61.3097C162.519 60.7197 162.367 60.022 162.367 59.2166C162.367 58.4311 162.519 57.7417 162.824 57.1484C163.129 56.5552 163.559 56.0928 164.112 55.7614C164.669 55.4299 165.322 55.2642 166.071 55.2642C166.575 55.2642 167.044 55.3454 167.478 55.5078C167.915 55.6669 168.296 55.9072 168.621 56.2287C168.949 56.5502 169.205 56.9545 169.387 57.4418C169.569 57.9257 169.66 58.4924 169.66 59.142V59.7237H163.212V58.4112H167.667C167.667 58.1063 167.6 57.8362 167.468 57.6009C167.335 57.3655 167.151 57.1816 166.916 57.049C166.684 56.9131 166.414 56.8452 166.106 56.8452C165.784 56.8452 165.499 56.9197 165.251 57.0689C165.005 57.2147 164.813 57.4119 164.674 57.6605C164.535 57.9058 164.463 58.1792 164.46 58.4808V59.7287C164.46 60.1065 164.53 60.433 164.669 60.7081C164.811 60.9832 165.012 61.1953 165.27 61.3445C165.529 61.4936 165.836 61.5682 166.19 61.5682C166.425 61.5682 166.641 61.535 166.836 61.4688C167.032 61.4025 167.199 61.303 167.339 61.1705C167.478 61.0379 167.584 60.8755 167.657 60.6832L169.616 60.8125C169.516 61.2831 169.312 61.6941 169.004 62.0455C168.699 62.3935 168.305 62.6652 167.821 62.8608C167.34 63.053 166.785 63.1491 166.155 63.1491ZM177.396 57.5412L175.457 57.6605C175.424 57.4948 175.353 57.3456 175.243 57.2131C175.134 57.0772 174.99 56.9695 174.811 56.8899C174.635 56.8071 174.425 56.7656 174.18 56.7656C173.851 56.7656 173.575 56.8352 173.349 56.9744C173.124 57.1103 173.011 57.2926 173.011 57.5213C173.011 57.7036 173.084 57.8577 173.23 57.9837C173.376 58.1096 173.626 58.2107 173.981 58.2869L175.363 58.5653C176.105 58.7178 176.659 58.9631 177.023 59.3011C177.388 59.6392 177.57 60.0833 177.57 60.6335C177.57 61.134 177.423 61.5732 177.128 61.951C176.836 62.3288 176.435 62.6238 175.925 62.8359C175.417 63.0447 174.832 63.1491 174.17 63.1491C173.159 63.1491 172.353 62.9387 171.753 62.5178C171.157 62.0935 170.807 61.5168 170.704 60.7876L172.787 60.6783C172.85 60.9865 173.003 61.2218 173.245 61.3842C173.487 61.5433 173.797 61.6229 174.175 61.6229C174.546 61.6229 174.844 61.5516 175.069 61.4091C175.298 61.2633 175.414 61.076 175.417 60.8473C175.414 60.6551 175.333 60.4976 175.174 60.375C175.015 60.2491 174.769 60.1529 174.438 60.0866L173.116 59.8232C172.37 59.674 171.815 59.4155 171.45 59.0476C171.089 58.6797 170.908 58.2107 170.908 57.6406C170.908 57.1501 171.041 56.7275 171.306 56.3729C171.574 56.0182 171.951 55.7448 172.434 55.5526C172.922 55.3603 173.492 55.2642 174.145 55.2642C175.109 55.2642 175.868 55.468 176.422 55.8757C176.979 56.2834 177.303 56.8385 177.396 57.5412Z" fill="white"/>
<rect x="1320" y="16" width="321" height="8" fill="black" fill-opacity="0.2"/>
<path d="M625.251 56.7557H627.195L628.562 58.5391L629.208 59.3317L631.388 62.1761H629.368L627.911 60.2777L627.412 59.5874L625.251 56.7557ZM631.81 54.4545C631.81 55.8523 631.554 57.054 631.043 58.0597C630.531 59.0611 629.83 59.8324 628.94 60.3736C628.053 60.9105 627.045 61.179 625.916 61.179C624.783 61.179 623.771 60.9105 622.88 60.3736C621.994 59.8324 621.295 59.0589 620.783 58.0533C620.272 57.0476 620.016 55.848 620.016 54.4545C620.016 53.0568 620.272 51.8572 620.783 50.8558C621.295 49.8501 621.994 49.0788 622.88 48.5419C623.771 48.0007 624.783 47.7301 625.916 47.7301C627.045 47.7301 628.053 48.0007 628.94 48.5419C629.83 49.0788 630.531 49.8501 631.043 50.8558C631.554 51.8572 631.81 53.0568 631.81 54.4545ZM629.854 54.4545C629.854 53.3892 629.681 52.4922 629.336 51.7635C628.995 51.0305 628.526 50.4766 627.93 50.1016C627.337 49.7223 626.666 49.5327 625.916 49.5327C625.162 49.5327 624.489 49.7223 623.896 50.1016C623.304 50.4766 622.835 51.0305 622.49 51.7635C622.149 52.4922 621.979 53.3892 621.979 54.4545C621.979 55.5199 622.149 56.419 622.49 57.152C622.835 57.8807 623.304 58.4347 623.896 58.8139C624.489 59.1889 625.162 59.3764 625.916 59.3764C626.666 59.3764 627.337 59.1889 627.93 58.8139C628.526 58.4347 628.995 57.8807 629.336 57.152C629.681 56.419 629.854 55.5199 629.854 54.4545ZM640.338 56.9283V51.1818H642.256V61H640.377V59.2997H640.274C640.048 59.8239 639.686 60.2607 639.188 60.6101C638.693 60.9553 638.078 61.1278 637.34 61.1278C636.71 61.1278 636.151 60.9893 635.666 60.7124C635.184 60.4311 634.805 60.0156 634.528 59.4659C634.255 58.9162 634.119 58.2365 634.119 57.4268V51.1818H636.03V57.1967C636.03 57.8658 636.215 58.3984 636.586 58.7947C636.957 59.1911 637.438 59.3892 638.031 59.3892C638.389 59.3892 638.744 59.2997 639.098 59.1207C639.456 58.9418 639.752 58.6712 639.987 58.3089C640.225 57.9467 640.343 57.4865 640.338 56.9283ZM647.681 61.2173C647.059 61.2173 646.496 61.1023 645.994 60.8722C645.491 60.6378 645.092 60.299 644.798 59.8558C644.509 59.4126 644.364 58.8693 644.364 58.2259C644.364 57.6719 644.47 57.2159 644.683 56.858C644.896 56.5 645.184 56.2166 645.546 56.0078C645.908 55.799 646.313 55.6413 646.761 55.5348C647.208 55.4283 647.664 55.3473 648.129 55.2919C648.717 55.2237 649.194 55.1683 649.56 55.1257C649.927 55.0788 650.193 55.0043 650.359 54.902C650.526 54.7997 650.609 54.6335 650.609 54.4034V54.3587C650.609 53.8004 650.451 53.3679 650.136 53.0611C649.825 52.7543 649.36 52.6009 648.742 52.6009C648.099 52.6009 647.592 52.7436 647.221 53.0291C646.854 53.3104 646.601 53.6236 646.46 53.9688L644.664 53.5597C644.877 52.9631 645.188 52.4815 645.597 52.1151C646.011 51.7443 646.486 51.4759 647.023 51.3097C647.56 51.1392 648.124 51.054 648.717 51.054C649.109 51.054 649.524 51.1009 649.963 51.1946C650.406 51.2841 650.82 51.4503 651.203 51.6932C651.591 51.9361 651.908 52.2834 652.156 52.7351C652.403 53.1825 652.526 53.7642 652.526 54.4801V61H650.66V59.6577H650.583C650.46 59.9048 650.274 60.1477 650.027 60.3864C649.78 60.625 649.462 60.8232 649.075 60.9808C648.687 61.1385 648.222 61.2173 647.681 61.2173ZM648.097 59.6832C648.625 59.6832 649.077 59.5788 649.452 59.37C649.831 59.1612 650.119 58.8885 650.315 58.5518C650.515 58.2109 650.615 57.8466 650.615 57.4588V56.1932C650.547 56.2614 650.415 56.3253 650.219 56.3849C650.027 56.4403 649.808 56.4893 649.56 56.532C649.313 56.5703 649.072 56.6065 648.838 56.6406C648.604 56.6705 648.408 56.696 648.25 56.7173C647.879 56.7642 647.54 56.843 647.234 56.9538C646.931 57.0646 646.688 57.2244 646.505 57.4332C646.326 57.6378 646.237 57.9105 646.237 58.2514C646.237 58.7244 646.411 59.0824 646.761 59.3253C647.11 59.5639 647.555 59.6832 648.097 59.6832ZM656.983 47.9091V61H655.072V47.9091H656.983ZM659.554 61V51.1818H661.466V61H659.554ZM660.52 49.6669C660.187 49.6669 659.902 49.5561 659.663 49.3345C659.429 49.1087 659.311 48.8402 659.311 48.5291C659.311 48.2138 659.429 47.9453 659.663 47.7237C659.902 47.4979 660.187 47.3849 660.52 47.3849C660.852 47.3849 661.135 47.4979 661.37 47.7237C661.608 47.9453 661.728 48.2138 661.728 48.5291C661.728 48.8402 661.608 49.1087 661.37 49.3345C661.135 49.5561 660.852 49.6669 660.52 49.6669ZM668.709 51.1818V52.7159H663.161V51.1818H668.709ZM664.682 61V50.044C664.682 49.4304 664.817 48.9212 665.085 48.5163C665.354 48.1072 665.709 47.8026 666.153 47.6023C666.596 47.3977 667.077 47.2955 667.597 47.2955C667.981 47.2955 668.309 47.3274 668.581 47.3913C668.854 47.451 669.057 47.5064 669.189 47.5575L668.741 49.1044C668.652 49.0788 668.537 49.049 668.396 49.0149C668.256 48.9766 668.085 48.9574 667.885 48.9574C667.42 48.9574 667.088 49.0724 666.888 49.3026C666.692 49.5327 666.594 49.8651 666.594 50.2997V61H664.682ZM670.681 61V51.1818H672.593V61H670.681ZM671.646 49.6669C671.314 49.6669 671.029 49.5561 670.79 49.3345C670.556 49.1087 670.438 48.8402 670.438 48.5291C670.438 48.2138 670.556 47.9453 670.79 47.7237C671.029 47.4979 671.314 47.3849 671.646 47.3849C671.979 47.3849 672.262 47.4979 672.497 47.7237C672.735 47.9453 672.855 48.2138 672.855 48.5291C672.855 48.8402 672.735 49.1087 672.497 49.3345C672.262 49.5561 671.979 49.6669 671.646 49.6669ZM679.299 61.1982C678.349 61.1982 677.531 60.983 676.845 60.5526C676.163 60.1179 675.639 59.5192 675.272 58.7564C674.906 57.9936 674.723 57.12 674.723 56.1357C674.723 55.1385 674.91 54.2585 675.285 53.4957C675.66 52.7287 676.189 52.13 676.87 51.6996C677.552 51.2692 678.355 51.054 679.28 51.054C680.026 51.054 680.691 51.1925 681.275 51.4695C681.858 51.7422 682.329 52.1257 682.687 52.62C683.049 53.1143 683.265 53.6918 683.333 54.3523H681.473C681.37 53.892 681.136 53.4957 680.77 53.1634C680.407 52.831 679.922 52.6648 679.312 52.6648C678.779 52.6648 678.313 52.8054 677.912 53.0866C677.516 53.3636 677.207 53.7599 676.985 54.2756C676.764 54.7869 676.653 55.392 676.653 56.0909C676.653 56.8068 676.762 57.4247 676.979 57.9446C677.196 58.4645 677.503 58.8672 677.9 59.1527C678.3 59.4382 678.771 59.581 679.312 59.581C679.674 59.581 680.002 59.5149 680.297 59.3828C680.595 59.2464 680.844 59.0526 681.044 58.8011C681.249 58.5497 681.392 58.2472 681.473 57.8935H683.333C683.265 58.5284 683.058 59.0952 682.713 59.5938C682.368 60.0923 681.905 60.4844 681.326 60.7699C680.75 61.0554 680.075 61.1982 679.299 61.1982ZM688.234 61.2173C687.612 61.2173 687.049 61.1023 686.546 60.8722C686.044 60.6378 685.645 60.299 685.351 59.8558C685.061 59.4126 684.916 58.8693 684.916 58.2259C684.916 57.6719 685.023 57.2159 685.236 56.858C685.449 56.5 685.737 56.2166 686.099 56.0078C686.461 55.799 686.866 55.6413 687.313 55.5348C687.761 55.4283 688.217 55.3473 688.681 55.2919C689.269 55.2237 689.747 55.1683 690.113 55.1257C690.48 55.0788 690.746 55.0043 690.912 54.902C691.078 54.7997 691.161 54.6335 691.161 54.4034V54.3587C691.161 53.8004 691.004 53.3679 690.688 53.0611C690.377 52.7543 689.913 52.6009 689.295 52.6009C688.651 52.6009 688.144 52.7436 687.774 53.0291C687.407 53.3104 687.154 53.6236 687.013 53.9688L685.217 53.5597C685.43 52.9631 685.741 52.4815 686.15 52.1151C686.563 51.7443 687.039 51.4759 687.575 51.3097C688.112 51.1392 688.677 51.054 689.269 51.054C689.661 51.054 690.077 51.1009 690.516 51.1946C690.959 51.2841 691.372 51.4503 691.756 51.6932C692.144 51.9361 692.461 52.2834 692.708 52.7351C692.955 53.1825 693.079 53.7642 693.079 54.4801V61H691.213V59.6577H691.136C691.012 59.9048 690.827 60.1477 690.58 60.3864C690.333 60.625 690.015 60.8232 689.627 60.9808C689.24 61.1385 688.775 61.2173 688.234 61.2173ZM688.649 59.6832C689.178 59.6832 689.629 59.5788 690.004 59.37C690.384 59.1612 690.671 58.8885 690.867 58.5518C691.068 58.2109 691.168 57.8466 691.168 57.4588V56.1932C691.1 56.2614 690.968 56.3253 690.771 56.3849C690.58 56.4403 690.36 56.4893 690.113 56.532C689.866 56.5703 689.625 56.6065 689.391 56.6406C689.156 56.6705 688.96 56.696 688.803 56.7173C688.432 56.7642 688.093 56.843 687.786 56.9538C687.484 57.0646 687.241 57.2244 687.058 57.4332C686.879 57.6378 686.789 57.9105 686.789 58.2514C686.789 58.7244 686.964 59.0824 687.313 59.3253C687.663 59.5639 688.108 59.6832 688.649 59.6832ZM695.625 61V51.1818H697.472V52.7415H697.574C697.753 52.2131 698.069 51.7976 698.52 51.495C698.976 51.1882 699.492 51.0348 700.067 51.0348C700.186 51.0348 700.327 51.0391 700.489 51.0476C700.655 51.0561 700.785 51.0668 700.879 51.0795V52.9077C700.802 52.8864 700.666 52.8629 700.47 52.8374C700.274 52.8075 700.078 52.7926 699.882 52.7926C699.43 52.7926 699.027 52.8885 698.674 53.0803C698.324 53.2678 698.047 53.5298 697.843 53.8665C697.638 54.1989 697.536 54.5781 697.536 55.0043V61H695.625Z" fill="#4D4D4D"/>
<rect x="325" y="16" width="321" height="8" fill="#2FAC66" fill-opacity="0.7"/>
<path d="M935.676 63H931.438V49.9091H935.81C937.093 49.9091 938.195 50.1712 939.115 50.6953C940.036 51.2152 940.741 51.9631 941.231 52.9389C941.725 53.9105 941.972 55.076 941.972 56.4354C941.972 57.799 941.723 58.9709 941.224 59.951C940.73 60.9311 940.014 61.6854 939.077 62.2138C938.139 62.7379 937.006 63 935.676 63ZM933.413 61.2741H935.567C936.565 61.2741 937.393 61.0866 938.054 60.7116C938.714 60.3324 939.209 59.7848 939.537 59.0689C939.865 58.3487 940.029 57.4709 940.029 56.4354C940.029 55.4084 939.865 54.5369 939.537 53.821C939.213 53.1051 938.729 52.5618 938.086 52.1911C937.442 51.8203 936.643 51.6349 935.689 51.6349H933.413V61.2741ZM948.507 63.1982C947.539 63.1982 946.706 62.9915 946.007 62.5781C945.313 62.1605 944.776 61.5746 944.396 60.8203C944.021 60.0618 943.834 59.1733 943.834 58.1548C943.834 57.1491 944.021 56.2628 944.396 55.4957C944.776 54.7287 945.304 54.13 945.982 53.6996C946.664 53.2692 947.46 53.054 948.372 53.054C948.926 53.054 949.463 53.1456 949.983 53.3288C950.503 53.5121 950.97 53.7997 951.383 54.1918C951.796 54.5838 952.122 55.093 952.361 55.7195C952.6 56.3416 952.719 57.098 952.719 57.9886V58.6662H944.914V57.2344H950.846C950.846 56.7315 950.744 56.2862 950.539 55.8984C950.335 55.5064 950.047 55.1974 949.676 54.9716C949.31 54.7457 948.879 54.6328 948.385 54.6328C947.848 54.6328 947.379 54.7649 946.979 55.0291C946.583 55.2891 946.276 55.63 946.058 56.0518C945.845 56.4695 945.739 56.9233 945.739 57.4134V58.532C945.739 59.1882 945.854 59.7464 946.084 60.2067C946.318 60.6669 946.644 61.0185 947.062 61.2614C947.48 61.5 947.968 61.6193 948.526 61.6193C948.888 61.6193 949.218 61.5682 949.517 61.4659C949.815 61.3594 950.073 61.2017 950.29 60.9929C950.507 60.7841 950.673 60.5263 950.789 60.2195L952.597 60.5455C952.453 61.0781 952.193 61.5447 951.818 61.9453C951.447 62.3416 950.98 62.6506 950.418 62.8722C949.86 63.0895 949.222 63.1982 948.507 63.1982ZM962.197 55.5788L960.464 55.8857C960.392 55.6641 960.277 55.4531 960.119 55.2528C959.966 55.0526 959.757 54.8885 959.493 54.7607C959.229 54.6328 958.898 54.5689 958.502 54.5689C957.961 54.5689 957.509 54.6903 957.147 54.9332C956.785 55.1719 956.604 55.4808 956.604 55.8601C956.604 56.1882 956.725 56.4524 956.968 56.6527C957.211 56.853 957.603 57.017 958.144 57.1449L959.704 57.5028C960.607 57.7116 961.281 58.0334 961.724 58.468C962.167 58.9027 962.388 59.4673 962.388 60.1619C962.388 60.75 962.218 61.2741 961.877 61.7344C961.54 62.1903 961.07 62.5483 960.464 62.8082C959.864 63.0682 959.167 63.1982 958.374 63.1982C957.275 63.1982 956.378 62.9638 955.683 62.495C954.989 62.022 954.563 61.3509 954.405 60.4815L956.252 60.2003C956.367 60.6818 956.604 61.0462 956.962 61.2933C957.32 61.5362 957.786 61.6577 958.362 61.6577C958.988 61.6577 959.489 61.5277 959.864 61.2678C960.239 61.0036 960.426 60.6818 960.426 60.3026C960.426 59.9957 960.311 59.7379 960.081 59.5291C959.855 59.3203 959.508 59.1626 959.039 59.0561L957.377 58.6918C956.461 58.483 955.783 58.1506 955.344 57.6946C954.91 57.2386 954.692 56.6612 954.692 55.9624C954.692 55.3828 954.854 54.8757 955.178 54.4411C955.502 54.0064 955.95 53.6676 956.521 53.4247C957.092 53.1776 957.746 53.054 958.483 53.054C959.544 53.054 960.379 53.2841 960.989 53.7443C961.598 54.2003 962.001 54.8118 962.197 55.5788ZM968.721 63.1982C967.754 63.1982 966.921 62.9915 966.222 62.5781C965.528 62.1605 964.991 61.5746 964.611 60.8203C964.236 60.0618 964.049 59.1733 964.049 58.1548C964.049 57.1491 964.236 56.2628 964.611 55.4957C964.991 54.7287 965.519 54.13 966.197 53.6996C966.878 53.2692 967.675 53.054 968.587 53.054C969.141 53.054 969.678 53.1456 970.198 53.3288C970.718 53.5121 971.184 53.7997 971.598 54.1918C972.011 54.5838 972.337 55.093 972.576 55.7195C972.814 56.3416 972.934 57.098 972.934 57.9886V58.6662H965.129V57.2344H971.061C971.061 56.7315 970.959 56.2862 970.754 55.8984C970.55 55.5064 970.262 55.1974 969.891 54.9716C969.525 54.7457 969.094 54.6328 968.6 54.6328C968.063 54.6328 967.594 54.7649 967.194 55.0291C966.797 55.2891 966.491 55.63 966.273 56.0518C966.06 56.4695 965.954 56.9233 965.954 57.4134V58.532C965.954 59.1882 966.069 59.7464 966.299 60.2067C966.533 60.6669 966.859 61.0185 967.277 61.2614C967.694 61.5 968.182 61.6193 968.741 61.6193C969.103 61.6193 969.433 61.5682 969.731 61.4659C970.03 61.3594 970.287 61.2017 970.505 60.9929C970.722 60.7841 970.888 60.5263 971.003 60.2195L972.812 60.5455C972.667 61.0781 972.407 61.5447 972.032 61.9453C971.662 62.3416 971.195 62.6506 970.633 62.8722C970.074 63.0895 969.437 63.1982 968.721 63.1982ZM976.966 57.1705V63H975.054V53.1818H976.889V54.7798H977.01C977.236 54.2599 977.59 53.8423 978.071 53.527C978.557 53.2116 979.169 53.054 979.906 53.054C980.575 53.054 981.161 53.1946 981.664 53.4759C982.167 53.7528 982.556 54.1662 982.833 54.7159C983.11 55.2656 983.249 55.9453 983.249 56.755V63H981.338V56.9851C981.338 56.2734 981.152 55.7173 980.782 55.3168C980.411 54.9119 979.902 54.7095 979.254 54.7095C978.811 54.7095 978.417 54.8054 978.071 54.9972C977.73 55.1889 977.46 55.4702 977.26 55.8409C977.064 56.2074 976.966 56.6506 976.966 57.1705ZM993.86 53.1818L990.299 63H988.254L984.687 53.1818H986.739L989.225 60.7372H989.328L991.808 53.1818H993.86ZM999.458 63.1982C998.537 63.1982 997.734 62.9872 997.048 62.5653C996.362 62.1435 995.829 61.5533 995.45 60.7947C995.07 60.0362 994.881 59.1499 994.881 58.1357C994.881 57.1172 995.07 56.2266 995.45 55.4638C995.829 54.701 996.362 54.1087 997.048 53.6868C997.734 53.2649 998.537 53.054 999.458 53.054C1000.38 53.054 1001.18 53.2649 1001.87 53.6868C1002.55 54.1087 1003.09 54.701 1003.47 55.4638C1003.84 56.2266 1004.03 57.1172 1004.03 58.1357C1004.03 59.1499 1003.84 60.0362 1003.47 60.7947C1003.09 61.5533 1002.55 62.1435 1001.87 62.5653C1001.18 62.9872 1000.38 63.1982 999.458 63.1982ZM999.464 61.5938C1000.06 61.5938 1000.55 61.4361 1000.95 61.1207C1001.34 60.8054 1001.63 60.3857 1001.82 59.8615C1002.01 59.3374 1002.1 58.7599 1002.1 58.1293C1002.1 57.5028 1002.01 56.9276 1001.82 56.4034C1001.63 55.875 1001.34 55.451 1000.95 55.1314C1000.55 54.8118 1000.06 54.652 999.464 54.652C998.863 54.652 998.365 54.8118 997.968 55.1314C997.576 55.451 997.284 55.875 997.093 56.4034C996.905 56.9276 996.811 57.5028 996.811 58.1293C996.811 58.7599 996.905 59.3374 997.093 59.8615C997.284 60.3857 997.576 60.8054 997.968 61.1207C998.365 61.4361 998.863 61.5938 999.464 61.5938ZM1008.08 49.9091V63H1006.17V49.9091H1008.08ZM1019.05 53.1818L1015.49 63H1013.44L1009.88 53.1818H1011.93L1014.41 60.7372H1014.52L1017 53.1818H1019.05ZM1024.74 63.1982C1023.78 63.1982 1022.94 62.9915 1022.24 62.5781C1021.55 62.1605 1021.01 61.5746 1020.63 60.8203C1020.26 60.0618 1020.07 59.1733 1020.07 58.1548C1020.07 57.1491 1020.26 56.2628 1020.63 55.4957C1021.01 54.7287 1021.54 54.13 1022.22 53.6996C1022.9 53.2692 1023.7 53.054 1024.61 53.054C1025.16 53.054 1025.7 53.1456 1026.22 53.3288C1026.74 53.5121 1027.21 53.7997 1027.62 54.1918C1028.03 54.5838 1028.36 55.093 1028.6 55.7195C1028.84 56.3416 1028.96 57.098 1028.96 57.9886V58.6662H1021.15V57.2344H1027.08C1027.08 56.7315 1026.98 56.2862 1026.78 55.8984C1026.57 55.5064 1026.28 55.1974 1025.91 54.9716C1025.55 54.7457 1025.12 54.6328 1024.62 54.6328C1024.08 54.6328 1023.62 54.7649 1023.22 55.0291C1022.82 55.2891 1022.51 55.63 1022.29 56.0518C1022.08 56.4695 1021.98 56.9233 1021.98 57.4134V58.532C1021.98 59.1882 1022.09 59.7464 1022.32 60.2067C1022.55 60.6669 1022.88 61.0185 1023.3 61.2614C1023.72 61.5 1024.2 61.6193 1024.76 61.6193C1025.12 61.6193 1025.45 61.5682 1025.75 61.4659C1026.05 61.3594 1026.31 61.2017 1026.53 60.9929C1026.74 60.7841 1026.91 60.5263 1027.02 60.2195L1028.83 60.5455C1028.69 61.0781 1028.43 61.5447 1028.05 61.9453C1027.68 62.3416 1027.22 62.6506 1026.65 62.8722C1026.1 63.0895 1025.46 63.1982 1024.74 63.1982ZM1031.08 63V53.1818H1032.92V54.7415H1033.03C1033.2 54.2131 1033.52 53.7976 1033.97 53.495C1034.43 53.1882 1034.94 53.0348 1035.52 53.0348C1035.64 53.0348 1035.78 53.0391 1035.94 53.0476C1036.11 53.0561 1036.24 53.0668 1036.33 53.0795V54.9077C1036.25 54.8864 1036.12 54.8629 1035.92 54.8374C1035.72 54.8075 1035.53 54.7926 1035.33 54.7926C1034.88 54.7926 1034.48 54.8885 1034.12 55.0803C1033.78 55.2678 1033.5 55.5298 1033.29 55.8665C1033.09 56.1989 1032.99 56.5781 1032.99 57.0043V63H1031.08Z" fill="#4D4D4D"/>
<path d="M1266.44 63V49.9091H1274.56V51.6094H1268.41V55.598H1273.97V57.2919H1268.41V63H1266.44ZM1276.83 63V53.1818H1278.74V63H1276.83ZM1277.8 51.6669C1277.46 51.6669 1277.18 51.5561 1276.94 51.3345C1276.71 51.1087 1276.59 50.8402 1276.59 50.5291C1276.59 50.2138 1276.71 49.9453 1276.94 49.7237C1277.18 49.4979 1277.46 49.3849 1277.8 49.3849C1278.13 49.3849 1278.41 49.4979 1278.65 49.7237C1278.89 49.9453 1279 50.2138 1279 50.5291C1279 50.8402 1278.89 51.1087 1278.65 51.3345C1278.41 51.5561 1278.13 51.6669 1277.8 51.6669ZM1283.23 57.1705V63H1281.31V53.1818H1283.15V54.7798H1283.27C1283.5 54.2599 1283.85 53.8423 1284.33 53.527C1284.82 53.2116 1285.43 53.054 1286.17 53.054C1286.83 53.054 1287.42 53.1946 1287.92 53.4759C1288.43 53.7528 1288.82 54.1662 1289.09 54.7159C1289.37 55.2656 1289.51 55.9453 1289.51 56.755V63H1287.6V56.9851C1287.6 56.2734 1287.41 55.7173 1287.04 55.3168C1286.67 54.9119 1286.16 54.7095 1285.51 54.7095C1285.07 54.7095 1284.68 54.8054 1284.33 54.9972C1283.99 55.1889 1283.72 55.4702 1283.52 55.8409C1283.32 56.2074 1283.23 56.6506 1283.23 57.1705ZM1294.93 63.2173C1294.31 63.2173 1293.74 63.1023 1293.24 62.8722C1292.74 62.6378 1292.34 62.299 1292.05 61.8558C1291.76 61.4126 1291.61 60.8693 1291.61 60.2259C1291.61 59.6719 1291.72 59.2159 1291.93 58.858C1292.14 58.5 1292.43 58.2166 1292.79 58.0078C1293.16 57.799 1293.56 57.6413 1294.01 57.5348C1294.46 57.4283 1294.91 57.3473 1295.38 57.2919C1295.96 57.2237 1296.44 57.1683 1296.81 57.1257C1297.17 57.0788 1297.44 57.0043 1297.61 56.902C1297.77 56.7997 1297.86 56.6335 1297.86 56.4034V56.3587C1297.86 55.8004 1297.7 55.3679 1297.38 55.0611C1297.07 54.7543 1296.61 54.6009 1295.99 54.6009C1295.35 54.6009 1294.84 54.7436 1294.47 55.0291C1294.1 55.3104 1293.85 55.6236 1293.71 55.9688L1291.91 55.5597C1292.13 54.9631 1292.44 54.4815 1292.85 54.1151C1293.26 53.7443 1293.73 53.4759 1294.27 53.3097C1294.81 53.1392 1295.37 53.054 1295.96 53.054C1296.36 53.054 1296.77 53.1009 1297.21 53.1946C1297.65 53.2841 1298.07 53.4503 1298.45 53.6932C1298.84 53.9361 1299.16 54.2834 1299.4 54.7351C1299.65 55.1825 1299.77 55.7642 1299.77 56.4801V63H1297.91V61.6577H1297.83C1297.71 61.9048 1297.52 62.1477 1297.28 62.3864C1297.03 62.625 1296.71 62.8232 1296.32 62.9808C1295.93 63.1385 1295.47 63.2173 1294.93 63.2173ZM1295.34 61.6832C1295.87 61.6832 1296.32 61.5788 1296.7 61.37C1297.08 61.1612 1297.37 60.8885 1297.56 60.5518C1297.76 60.2109 1297.86 59.8466 1297.86 59.4588V58.1932C1297.79 58.2614 1297.66 58.3253 1297.47 58.3849C1297.28 58.4403 1297.06 58.4893 1296.81 58.532C1296.56 58.5703 1296.32 58.6065 1296.09 58.6406C1295.85 58.6705 1295.66 58.696 1295.5 58.7173C1295.13 58.7642 1294.79 58.843 1294.48 58.9538C1294.18 59.0646 1293.94 59.2244 1293.75 59.4332C1293.57 59.6378 1293.48 59.9105 1293.48 60.2514C1293.48 60.7244 1293.66 61.0824 1294.01 61.3253C1294.36 61.5639 1294.8 61.6832 1295.34 61.6832ZM1304.23 49.9091V63H1302.32V49.9091H1304.23ZM1306.8 63V53.1818H1308.71V63H1306.8ZM1307.77 51.6669C1307.44 51.6669 1307.15 51.5561 1306.91 51.3345C1306.68 51.1087 1306.56 50.8402 1306.56 50.5291C1306.56 50.2138 1306.68 49.9453 1306.91 49.7237C1307.15 49.4979 1307.44 49.3849 1307.77 49.3849C1308.1 49.3849 1308.38 49.4979 1308.62 49.7237C1308.86 49.9453 1308.98 50.2138 1308.98 50.5291C1308.98 50.8402 1308.86 51.1087 1308.62 51.3345C1308.38 51.5561 1308.1 51.6669 1307.77 51.6669ZM1311.08 63V61.6896L1316.4 54.9332V54.8438H1311.25V53.1818H1318.78V54.5753L1313.67 61.2486V61.3381H1318.96V63H1311.08ZM1324.07 63.2173C1323.45 63.2173 1322.89 63.1023 1322.39 62.8722C1321.88 62.6378 1321.48 62.299 1321.19 61.8558C1320.9 61.4126 1320.76 60.8693 1320.76 60.2259C1320.76 59.6719 1320.86 59.2159 1321.08 58.858C1321.29 58.5 1321.58 58.2166 1321.94 58.0078C1322.3 57.799 1322.71 57.6413 1323.15 57.5348C1323.6 57.4283 1324.06 57.3473 1324.52 57.2919C1325.11 57.2237 1325.59 57.1683 1325.95 57.1257C1326.32 57.0788 1326.59 57.0043 1326.75 56.902C1326.92 56.7997 1327 56.6335 1327 56.4034V56.3587C1327 55.8004 1326.84 55.3679 1326.53 55.0611C1326.22 54.7543 1325.75 54.6009 1325.13 54.6009C1324.49 54.6009 1323.98 54.7436 1323.61 55.0291C1323.25 55.3104 1322.99 55.6236 1322.85 55.9688L1321.06 55.5597C1321.27 54.9631 1321.58 54.4815 1321.99 54.1151C1322.4 53.7443 1322.88 53.4759 1323.42 53.3097C1323.95 53.1392 1324.52 53.054 1325.11 53.054C1325.5 53.054 1325.92 53.1009 1326.36 53.1946C1326.8 53.2841 1327.21 53.4503 1327.6 53.6932C1327.98 53.9361 1328.3 54.2834 1328.55 54.7351C1328.8 55.1825 1328.92 55.7642 1328.92 56.4801V63H1327.05V61.6577H1326.98C1326.85 61.9048 1326.67 62.1477 1326.42 62.3864C1326.17 62.625 1325.85 62.8232 1325.47 62.9808C1325.08 63.1385 1324.61 63.2173 1324.07 63.2173ZM1324.49 61.6832C1325.02 61.6832 1325.47 61.5788 1325.84 61.37C1326.22 61.1612 1326.51 60.8885 1326.71 60.5518C1326.91 60.2109 1327.01 59.8466 1327.01 59.4588V58.1932C1326.94 58.2614 1326.81 58.3253 1326.61 58.3849C1326.42 58.4403 1326.2 58.4893 1325.95 58.532C1325.71 58.5703 1325.47 58.6065 1325.23 58.6406C1325 58.6705 1324.8 58.696 1324.64 58.7173C1324.27 58.7642 1323.93 58.843 1323.63 58.9538C1323.32 59.0646 1323.08 59.2244 1322.9 59.4332C1322.72 59.6378 1322.63 59.9105 1322.63 60.2514C1322.63 60.7244 1322.8 61.0824 1323.15 61.3253C1323.5 61.5639 1323.95 61.6832 1324.49 61.6832ZM1335.14 63.1918C1334.35 63.1918 1333.64 62.9893 1333.02 62.5845C1332.4 62.1754 1331.91 61.5937 1331.56 60.8395C1331.21 60.081 1331.04 59.1712 1331.04 58.1101C1331.04 57.049 1331.21 56.1413 1331.57 55.3871C1331.92 54.6328 1332.41 54.0554 1333.04 53.6548C1333.66 53.2543 1334.36 53.054 1335.15 53.054C1335.76 53.054 1336.25 53.1562 1336.62 53.3608C1337 53.5611 1337.29 53.7955 1337.49 54.0639C1337.7 54.3324 1337.86 54.5689 1337.98 54.7734H1338.09V49.9091H1340V63H1338.14V61.4723H1337.98C1337.86 61.6811 1337.7 61.9197 1337.48 62.1882C1337.27 62.4567 1336.97 62.6911 1336.6 62.8913C1336.22 63.0916 1335.74 63.1918 1335.14 63.1918ZM1335.56 61.5618C1336.11 61.5618 1336.58 61.4169 1336.96 61.1271C1337.34 60.8331 1337.63 60.4261 1337.82 59.9062C1338.02 59.3864 1338.12 58.7812 1338.12 58.0909C1338.12 57.4091 1338.03 56.8125 1337.83 56.3011C1337.63 55.7898 1337.35 55.3913 1336.97 55.1058C1336.59 54.8203 1336.12 54.6776 1335.56 54.6776C1334.99 54.6776 1334.51 54.8267 1334.12 55.125C1333.74 55.4233 1333.45 55.8303 1333.25 56.3459C1333.06 56.8615 1332.97 57.4432 1332.97 58.0909C1332.97 58.7472 1333.06 59.3374 1333.26 59.8615C1333.46 60.3857 1333.75 60.8011 1334.13 61.108C1334.52 61.4105 1335 61.5618 1335.56 61.5618ZM1346.87 63.1982C1345.95 63.1982 1345.14 62.9872 1344.46 62.5653C1343.77 62.1435 1343.24 61.5533 1342.86 60.7947C1342.48 60.0362 1342.29 59.1499 1342.29 58.1357C1342.29 57.1172 1342.48 56.2266 1342.86 55.4638C1343.24 54.701 1343.77 54.1087 1344.46 53.6868C1345.14 53.2649 1345.95 53.054 1346.87 53.054C1347.79 53.054 1348.59 53.2649 1349.28 53.6868C1349.96 54.1087 1350.5 54.701 1350.88 55.4638C1351.25 56.2266 1351.44 57.1172 1351.44 58.1357C1351.44 59.1499 1351.25 60.0362 1350.88 60.7947C1350.5 61.5533 1349.96 62.1435 1349.28 62.5653C1348.59 62.9872 1347.79 63.1982 1346.87 63.1982ZM1346.87 61.5938C1347.47 61.5938 1347.97 61.4361 1348.36 61.1207C1348.75 60.8054 1349.04 60.3857 1349.23 59.8615C1349.42 59.3374 1349.51 58.7599 1349.51 58.1293C1349.51 57.5028 1349.42 56.9276 1349.23 56.4034C1349.04 55.875 1348.75 55.451 1348.36 55.1314C1347.97 54.8118 1347.47 54.652 1346.87 54.652C1346.27 54.652 1345.77 54.8118 1345.38 55.1314C1344.99 55.451 1344.69 55.875 1344.5 56.4034C1344.32 56.9276 1344.22 57.5028 1344.22 58.1293C1344.22 58.7599 1344.32 59.3374 1344.5 59.8615C1344.69 60.3857 1344.99 60.8054 1345.38 61.1207C1345.77 61.4361 1346.27 61.5938 1346.87 61.5938Z" fill="#4D4D4D"/>
<rect x="674" y="16" width="293" height="8" fill="#2FAC66" fill-opacity="0.7"/>
<rect x="990" y="16" width="306" height="8" fill="#2FAC66" fill-opacity="0.7"/>
<path d="M1469 57C1468.45 57 1467.98 56.8042 1467.59 56.4125C1467.2 56.0208 1467 55.55 1467 55V42.5C1467 42.2239 1466.78 42 1466.5 42C1466.22 42 1466 41.7761 1466 41.5V41C1466 40.4477 1466.45 40 1467 40H1470.5C1470.78 40 1471 39.7761 1471 39.5C1471 39.2239 1471.22 39 1471.5 39H1476.5C1476.78 39 1477 39.2239 1477 39.5C1477 39.7761 1477.22 40 1477.5 40H1481C1481.55 40 1482 40.4477 1482 41V41.5C1482 41.7761 1481.78 42 1481.5 42C1481.22 42 1481 42.2239 1481 42.5V55C1481 55.55 1480.8 56.0208 1480.41 56.4125C1480.02 56.8042 1479.55 57 1479 57H1469ZM1479 42H1469V55H1479V42ZM1471 53H1473V44H1471V53ZM1475 53H1477V44H1475V53Z" fill="#DD2727" fill-opacity="0.5"/>
<path d="M1493.06 52.5V43.7727H1496.01C1496.69 43.7727 1497.25 43.8892 1497.68 44.1222C1498.12 44.3523 1498.45 44.669 1498.66 45.0724C1498.87 45.4759 1498.97 45.9347 1498.97 46.4489C1498.97 46.9631 1498.87 47.419 1498.66 47.8168C1498.45 48.2145 1498.12 48.527 1497.69 48.7543C1497.25 48.9787 1496.7 49.0909 1496.02 49.0909H1493.64V48.1364H1495.99C1496.45 48.1364 1496.83 48.0682 1497.11 47.9318C1497.4 47.7955 1497.61 47.6023 1497.74 47.3523C1497.87 47.0994 1497.93 46.7983 1497.93 46.4489C1497.93 46.0994 1497.87 45.794 1497.74 45.5327C1497.61 45.2713 1497.4 45.0696 1497.11 44.9276C1496.82 44.7827 1496.44 44.7102 1495.97 44.7102H1494.11V52.5H1493.06ZM1497.16 48.5795L1499.31 52.5H1498.09L1495.97 48.5795H1497.16ZM1503.27 52.6364C1502.64 52.6364 1502.1 52.4972 1501.64 52.2188C1501.18 51.9375 1500.83 51.5455 1500.59 51.0426C1500.34 50.5369 1500.22 49.9489 1500.22 49.2784C1500.22 48.608 1500.34 48.017 1500.59 47.5057C1500.83 46.9915 1501.18 46.5909 1501.62 46.304C1502.06 46.0142 1502.58 45.8693 1503.17 45.8693C1503.51 45.8693 1503.85 45.9261 1504.18 46.0398C1504.51 46.1534 1504.81 46.3381 1505.09 46.5938C1505.36 46.8466 1505.58 47.1818 1505.74 47.5994C1505.9 48.017 1505.98 48.5312 1505.98 49.142V49.5682H1500.94V48.6989H1504.96C1504.96 48.3295 1504.88 48 1504.74 47.7102C1504.59 47.4205 1504.38 47.1918 1504.11 47.0241C1503.85 46.8565 1503.53 46.7727 1503.17 46.7727C1502.77 46.7727 1502.42 46.8722 1502.13 47.071C1501.84 47.267 1501.62 47.5227 1501.46 47.8381C1501.3 48.1534 1501.22 48.4915 1501.22 48.8523V49.4318C1501.22 49.9261 1501.31 50.3452 1501.48 50.6889C1501.65 51.0298 1501.89 51.2898 1502.2 51.4688C1502.51 51.6449 1502.86 51.733 1503.27 51.733C1503.53 51.733 1503.77 51.696 1503.99 51.6222C1504.2 51.5455 1504.39 51.4318 1504.54 51.2812C1504.7 51.1278 1504.82 50.9375 1504.91 50.7102L1505.88 50.983C1505.78 51.3125 1505.6 51.6023 1505.36 51.8523C1505.12 52.0994 1504.82 52.2926 1504.47 52.4318C1504.11 52.5682 1503.71 52.6364 1503.27 52.6364ZM1507.51 52.5V45.9545H1508.48V46.9773H1508.57C1508.7 46.6278 1508.92 46.3565 1509.23 46.1634C1509.53 45.9673 1509.9 45.8693 1510.32 45.8693C1510.75 45.8693 1511.11 45.9673 1511.4 46.1634C1511.69 46.3565 1511.92 46.6278 1512.08 46.9773H1512.15C1512.31 46.6392 1512.57 46.3707 1512.9 46.1719C1513.24 45.9702 1513.64 45.8693 1514.11 45.8693C1514.69 45.8693 1515.17 46.0526 1515.54 46.419C1515.92 46.7827 1516.1 47.3494 1516.1 48.1193V52.5H1515.1V48.1193C1515.1 47.6364 1514.96 47.2912 1514.7 47.0838C1514.44 46.8764 1514.12 46.7727 1513.77 46.7727C1513.31 46.7727 1512.95 46.9119 1512.7 47.1903C1512.44 47.4659 1512.32 47.8153 1512.32 48.2386V52.5H1511.29V48.017C1511.29 47.6449 1511.17 47.3452 1510.93 47.1179C1510.69 46.8878 1510.38 46.7727 1510 46.7727C1509.74 46.7727 1509.49 46.8423 1509.27 46.9815C1509.04 47.1207 1508.86 47.3139 1508.72 47.5611C1508.58 47.8054 1508.52 48.0881 1508.52 48.4091V52.5H1507.51ZM1520.6 52.6364C1520.01 52.6364 1519.49 52.4957 1519.04 52.2145C1518.6 51.9332 1518.25 51.5398 1518 51.0341C1517.76 50.5284 1517.63 49.9375 1517.63 49.2614C1517.63 48.5795 1517.76 47.9844 1518 47.4759C1518.25 46.9673 1518.6 46.5724 1519.04 46.2912C1519.49 46.0099 1520.01 45.8693 1520.6 45.8693C1521.19 45.8693 1521.71 46.0099 1522.15 46.2912C1522.6 46.5724 1522.94 46.9673 1523.19 47.4759C1523.44 47.9844 1523.56 48.5795 1523.56 49.2614C1523.56 49.9375 1523.44 50.5284 1523.19 51.0341C1522.94 51.5398 1522.6 51.9332 1522.15 52.2145C1521.71 52.4957 1521.19 52.6364 1520.6 52.6364ZM1520.6 51.733C1521.05 51.733 1521.42 51.6179 1521.71 51.3878C1522 51.1577 1522.21 50.8551 1522.35 50.4801C1522.49 50.1051 1522.56 49.6989 1522.56 49.2614C1522.56 48.8239 1522.49 48.4162 1522.35 48.0384C1522.21 47.6605 1522 47.3551 1521.71 47.1222C1521.42 46.8892 1521.05 46.7727 1520.6 46.7727C1520.15 46.7727 1519.78 46.8892 1519.49 47.1222C1519.2 47.3551 1518.99 47.6605 1518.85 48.0384C1518.71 48.4162 1518.64 48.8239 1518.64 49.2614C1518.64 49.6989 1518.71 50.1051 1518.85 50.4801C1518.99 50.8551 1519.2 51.1577 1519.49 51.3878C1519.78 51.6179 1520.15 51.733 1520.6 51.733ZM1530.22 45.9545L1527.8 52.5H1526.77L1524.35 45.9545H1525.45L1527.25 51.1705H1527.32L1529.13 45.9545H1530.22ZM1534.06 52.6364C1533.42 52.6364 1532.88 52.4972 1532.42 52.2188C1531.97 51.9375 1531.62 51.5455 1531.37 51.0426C1531.13 50.5369 1531 49.9489 1531 49.2784C1531 48.608 1531.13 48.017 1531.37 47.5057C1531.62 46.9915 1531.96 46.5909 1532.4 46.304C1532.85 46.0142 1533.36 45.8693 1533.95 45.8693C1534.29 45.8693 1534.63 45.9261 1534.96 46.0398C1535.3 46.1534 1535.6 46.3381 1535.87 46.5938C1536.14 46.8466 1536.36 47.1818 1536.52 47.5994C1536.68 48.017 1536.77 48.5312 1536.77 49.142V49.5682H1531.72V48.6989H1535.74C1535.74 48.3295 1535.67 48 1535.52 47.7102C1535.38 47.4205 1535.17 47.1918 1534.9 47.0241C1534.63 46.8565 1534.32 46.7727 1533.95 46.7727C1533.55 46.7727 1533.21 46.8722 1532.91 47.071C1532.62 47.267 1532.4 47.5227 1532.24 47.8381C1532.09 48.1534 1532.01 48.4915 1532.01 48.8523V49.4318C1532.01 49.9261 1532.1 50.3452 1532.27 50.6889C1532.44 51.0298 1532.68 51.2898 1532.99 51.4688C1533.29 51.6449 1533.65 51.733 1534.06 51.733C1534.32 51.733 1534.56 51.696 1534.77 51.6222C1534.99 51.5455 1535.17 51.4318 1535.33 51.2812C1535.49 51.1278 1535.61 50.9375 1535.69 50.7102L1536.66 50.983C1536.56 51.3125 1536.39 51.6023 1536.15 51.8523C1535.91 52.0994 1535.61 52.2926 1535.25 52.4318C1534.9 52.5682 1534.5 52.6364 1534.06 52.6364ZM1538.3 52.5V45.9545H1539.27V46.9432H1539.34C1539.45 46.6193 1539.67 46.3565 1539.98 46.1548C1540.3 45.9531 1540.65 45.8523 1541.04 45.8523C1541.11 45.8523 1541.21 45.8537 1541.32 45.8565C1541.43 45.8594 1541.51 45.8636 1541.57 45.8693V46.892C1541.53 46.8835 1541.46 46.8707 1541.33 46.8537C1541.21 46.8338 1541.09 46.8239 1540.95 46.8239C1540.64 46.8239 1540.35 46.8906 1540.1 47.0241C1539.86 47.1548 1539.66 47.3366 1539.51 47.5696C1539.37 47.7997 1539.3 48.0625 1539.3 48.358V52.5H1538.3ZM1546.27 52.5V43.7727H1549.32C1549.93 43.7727 1550.43 43.8778 1550.83 44.0881C1551.22 44.2955 1551.52 44.5753 1551.71 44.9276C1551.9 45.277 1552 45.6648 1552 46.0909C1552 46.4659 1551.93 46.7756 1551.8 47.0199C1551.67 47.2642 1551.49 47.4574 1551.28 47.5994C1551.07 47.7415 1550.83 47.8466 1550.58 47.9148V48C1550.85 48.017 1551.12 48.1108 1551.39 48.2812C1551.66 48.4517 1551.89 48.696 1552.07 49.0142C1552.25 49.3324 1552.34 49.7216 1552.34 50.1818C1552.34 50.6193 1552.24 51.0128 1552.04 51.3622C1551.84 51.7116 1551.53 51.9886 1551.1 52.1932C1550.67 52.3977 1550.11 52.5 1549.43 52.5H1546.27ZM1547.33 51.5625H1549.43C1550.12 51.5625 1550.61 51.429 1550.9 51.1619C1551.19 50.892 1551.33 50.5653 1551.33 50.1818C1551.33 49.8864 1551.26 49.6136 1551.11 49.3636C1550.96 49.1108 1550.74 48.9091 1550.46 48.7585C1550.19 48.6051 1549.86 48.5284 1549.48 48.5284H1547.33V51.5625ZM1547.33 47.608H1549.29C1549.61 47.608 1549.89 47.5455 1550.15 47.4205C1550.41 47.2955 1550.61 47.1193 1550.76 46.892C1550.92 46.6648 1550.99 46.3977 1550.99 46.0909C1550.99 45.7074 1550.86 45.3821 1550.59 45.1151C1550.33 44.8452 1549.9 44.7102 1549.32 44.7102H1547.33V47.608ZM1554.08 52.5V43.7727H1557.03C1557.71 43.7727 1558.27 43.8963 1558.7 44.1435C1559.14 44.3878 1559.47 44.7188 1559.68 45.1364C1559.89 45.554 1559.99 46.0199 1559.99 46.5341C1559.99 47.0483 1559.89 47.5156 1559.68 47.9361C1559.47 48.3565 1559.15 48.6918 1558.71 48.9418C1558.28 49.1889 1557.72 49.3125 1557.04 49.3125H1554.93V48.375H1557.01C1557.48 48.375 1557.85 48.294 1558.14 48.1321C1558.42 47.9702 1558.63 47.7514 1558.76 47.4759C1558.89 47.1974 1558.95 46.8835 1558.95 46.5341C1558.95 46.1847 1558.89 45.8722 1558.76 45.5966C1558.63 45.321 1558.42 45.1051 1558.13 44.9489C1557.85 44.7898 1557.47 44.7102 1556.99 44.7102H1555.13V52.5H1554.08ZM1561.69 52.5V43.7727H1566.93V44.7102H1562.75V47.6591H1566.53V48.5966H1562.75V52.5H1561.69Z" fill="black"/>
</g>
<rect x="964" y="3" width="32" height="32" rx="16" fill="#2FAC66"/>
<path d="M977.55 25L971.85 19.3L973.275 17.875L977.55 22.15L986.725 12.975L988.15 14.4L977.55 25Z" fill="white"/>
<rect x="644" y="3" width="32" height="32" rx="16" fill="#2FAC66"/>
<path d="M657.55 25L651.85 19.3L653.275 17.875L657.55 22.15L666.725 12.975L668.15 14.4L657.55 25Z" fill="white"/>
<rect x="1292" y="2" width="32" height="32" rx="16" fill="#C3C3C3"/>
</g>
<defs>
<filter id="filter0_dd_100_1892" x="0" y="0" width="1644" height="80" filterUnits="userSpaceOnUse" color-interpolation-filters="sRGB">
<feFlood flood-opacity="0" result="BackgroundImageFix"/>
<feColorMatrix in="SourceAlpha" type="matrix" values="0 0 0 0 0 0 0 0 0 0 0 0 0 0 0 0 0 0 127 0" result="hardAlpha"/>
<feOffset dy="1"/>
<feGaussianBlur stdDeviation="1.5"/>
<feComposite in2="hardAlpha" operator="out"/>
<feColorMatrix type="matrix" values="0 0 0 0 0 0 0 0 0 0 0 0 0 0 0 0 0 0 0.25 0"/>
<feBlend mode="normal" in2="BackgroundImageFix" result="effect1_dropShadow_100_1892"/>
<feColorMatrix in="SourceAlpha" type="matrix" values="0 0 0 0 0 0 0 0 0 0 0 0 0 0 0 0 0 0 127 0" result="hardAlpha"/>
<feOffset dy="1"/>
<feGaussianBlur stdDeviation="1"/>
<feComposite in2="hardAlpha" operator="out"/>
<feColorMatrix type="matrix" values="0 0 0 0 0 0 0 0 0 0 0 0 0 0 0 0 0 0 0.25 0"/>
<feBlend mode="normal" in2="effect1_dropShadow_100_1892" result="effect2_dropShadow_100_1892"/>
<feBlend mode="normal" in="SourceGraphic" in2="effect2_dropShadow_100_1892" result="shape"/>
</filter>
<clipPath id="clip0_100_1892">
<rect width="1638" height="60" fill="white" transform="translate(3 16)"/>
</clipPath>
</defs>
</svg>
